<?xml version="1.0" encoding="UTF-8"?>
<svg enable-background="new 0 0 786.2 613.9" version="1.1" viewBox="0 0 786.2 613.9" xml:space="preserve" xmlns="http://www.w3.org/2000/svg">
<style type="text/css">
	.st0{fill:#FFFFFF;}
	.st1{fill:none;stroke:#CECECE;stroke-width:0.5;stroke-miterlimit:10;}
	.st2{fill:none;stroke:#FFCCB8;stroke-width:1.256;stroke-miterlimit:10;}
	.st3{fill:none;stroke:#FFCCB8;stroke-width:1.256;stroke-miterlimit:10;stroke-dasharray:6.5995,4.4;}
	.st4{fill:none;stroke:#FFCCB8;stroke-width:1.256;stroke-miterlimit:10;stroke-dasharray:6.7417,4.4948;}
	.st5{fill:#FFFFFF;stroke:#FFCCB8;stroke-width:1.256;stroke-miterlimit:10;}
	.st6{fill:none;stroke:#B1B1B1;stroke-width:1.1039;stroke-miterlimit:10;}
	.st7{fill:#B1B1B1;}
	.st8{fill:#4D4D4D;}
	.st9{fill:none;stroke:#B1B1B1;stroke-width:1.104;stroke-miterlimit:10;}
	.st10{fill:#666666;}
	.st11{fill:#333333;}
	.st12{fill:#FFFFFF;stroke:#F29379;stroke-width:1.256;stroke-miterlimit:10;}
</style>
<title>arch_diag</title>
		<rect class="st0" x="1.3" y="1.2" width="783.6" height="611.4"/>
		<rect class="st1" x="1.3" y="1.2" width="783.6" height="611.4"/>
		<rect class="st0" x="154.3" y="224.8" width="275" height="123.5"/>
			<polyline class="st2" points="429.3 345 429.3 348.3 426 348.3"/>
			<line class="st3" x1="421.6" x2="159.8" y1="348.3" y2="348.3"/>
			<polyline class="st2" points="157.6 348.3 154.3 348.3 154.3 345"/>
			<line class="st4" x1="154.3" x2="154.3" y1="340.5" y2="230.4"/>
			<polyline class="st2" points="154.3 228.1 154.3 224.8 157.6 224.8"/>
			<line class="st3" x1="162" x2="423.8" y1="224.8" y2="224.8"/>
			<polyline class="st2" points="426 224.8 429.3 224.8 429.3 228.1"/>
			<line class="st4" x1="429.3" x2="429.3" y1="232.6" y2="342.7"/>
	<rect class="st5" x="139" y="240.1" width="275" height="123.5"/>
		<line class="st6" x1="261.2" x2="261.2" y1="256.2" y2="173.8"/>
		<polygon class="st7" points="267.3 175.6 261.2 165.1 255.2 175.6"/>
	<rect class="st6" x="89.6" y="89.6" width="607" height="75"/>
		<path class="st8" d="m341.6 132.8l-1.9-4.5h-8l-1.9 4.5h-1.4l6.5-15.4h1.7l6.5 15.4h-1.5zm-2.4-5.8l-3.5-8.3-3.5 8.3h7z"/>
		<path class="st8" d="m356 127.6c0.1 2.9-2.1 5.2-5 5.3h-0.2c-1.6 0.1-3.2-0.8-4.1-2.1v6.4h-1.3v-14.8h1.3v2c0.9-1.4 2.4-2.2 4.1-2.1 2.9 0 5.2 2.3 5.2 5.2v0.1zm-9.3 0c0.1 2.2 1.9 4 4.2 3.9 2.2-0.1 4-1.9 3.9-4.2-0.1-2.2-1.9-3.9-4-3.9-2.2 0-4 1.7-4 3.9-0.1 0.2-0.1 0.2-0.1 0.3z"/>
		<path class="st8" d="m369.8 127.6c0.1 2.9-2.1 5.2-5 5.3h-0.2c-1.6 0.1-3.2-0.8-4.1-2.1v6.4h-1.3v-14.8h1.3v2c0.9-1.4 2.4-2.2 4.1-2.1 2.9 0 5.2 2.3 5.2 5.2v0.1zm-9.4 0c0.1 2.2 1.9 4 4.2 3.9 2.2-0.1 4-1.9 3.9-4.2-0.1-2.2-1.9-3.9-4-3.9-2.2 0-4 1.7-4 3.9-0.1 0.2-0.1 0.2-0.1 0.3z"/>
		<path class="st8" d="M373,132.8v-15.9h1.3v15.9H373z"/>
		<path class="st8" d="m379.8 118.7c0 0.5-0.4 0.9-0.8 0.9h-0.1c-0.5 0-0.9-0.4-0.9-0.8v-0.1c0-0.5 0.4-0.9 0.9-0.9s0.9 0.4 0.9 0.9zm-1.5 14.1v-10.4h1.3v10.4h-1.3z"/>
		<path class="st8" d="m391.8 123.9l-0.8 0.8c-0.8-0.8-1.9-1.3-3-1.3-2.3 0.1-4.1 2-4 4.4 0.1 2.2 1.8 3.9 4 4 1.2 0 2.3-0.5 3.1-1.3l0.8 0.9c-1 1.1-2.4 1.7-3.8 1.6-3 0-5.3-2.4-5.3-5.4 0-2.9 2.4-5.3 5.3-5.3 1.4-0.1 2.8 0.5 3.7 1.6z"/>
		<path class="st8" d="m403.1 132.8v-2c-0.9 1.4-2.5 2.2-4.1 2.2-3-0.1-5.3-2.6-5.2-5.5 0.1-2.8 2.4-5.1 5.2-5.2 1.7-0.1 3.2 0.8 4.1 2.2v-2h1.2v10.4h-1.2zm-8-5.2c0.1 2.2 1.9 4 4.2 3.9 2.2-0.1 4-1.9 3.9-4.2-0.1-2.2-1.9-3.9-4-3.9-2.2 0-4 1.7-4.1 4v0.2z"/>
		<path class="st8" d="m410.6 123.6v5.7c0 1.8 0.9 2.6 2.3 2.6 0.8 0 1.7-0.3 2.3-0.8l0.6 0.9c-0.9 0.7-1.9 1.1-3 1-2.2 0-3.5-1.2-3.5-3.7v-5.7h-2.3v-1.1h2.4v-3.5h1.3v3.4h4.8v1.1h-4.9z"/>
		<path class="st8" d="m419.9 118.7c0 0.5-0.4 0.9-0.8 0.9h-0.1c-0.5 0-0.9-0.4-0.9-0.8v-0.1c0-0.5 0.4-0.9 0.9-0.9s0.9 0.4 0.9 0.9zm-1.5 14.1v-10.4h1.3v10.4h-1.3z"/>
		<path class="st8" d="m433.6 127.6c0 3-2.4 5.4-5.4 5.4s-5.4-2.4-5.4-5.4 2.4-5.4 5.4-5.4c2.9-0.1 5.3 2.2 5.4 5.1v0.3zm-9.5 0c0 2.3 1.9 4.1 4.2 4 2.3 0 4.1-1.9 4-4.2 0-2.2-1.9-4-4.1-4s-4.1 1.7-4.1 4v0.2z"/>
		<path class="st8" d="m446.1 126.4v6.4h-1.3v-6c0.2-1.7-1.1-3.2-2.7-3.4h-0.6c-1.9-0.1-3.4 1.4-3.5 3.2v0.2 5.9h-1.3v-10.4h1.2v1.8c0.8-1.3 2.2-2 3.7-2 2.2-0.2 4.2 1.4 4.4 3.6 0.1 0.4 0.1 0.6 0.1 0.7z"/>
		<path class="st8" d="m453.4 123.4c-1.6 0-2.8 0.7-2.8 1.9 0 1 0.8 1.5 2.4 1.7l1.3 0.2c2.2 0.3 3.4 1.1 3.4 2.8 0 2-1.8 3.1-4.5 3.1-1.5 0-3-0.4-4.3-1.3l0.6-0.9c1.1 0.8 2.4 1.2 3.7 1.2 1.9 0 3.2-0.7 3.2-1.9 0-1-0.8-1.5-2.4-1.7l-1.3-0.1c-2.3-0.3-3.4-1.3-3.4-2.8 0-1.9 1.6-3 4-3 1.4 0 2.9 0.4 4.1 1.2l-0.5 1c-1-1.1-2.2-1.4-3.5-1.4z"/>
		<line class="st9" x1="545.3" x2="545.3" y1="442.8" y2="173.3"/>
		<polygon class="st7" points="551.4 175 545.3 164.6 539.3 175"/>
		<path class="st10" d="m276.1 194.4c-2 0-3.4 0.9-3.4 2.5 0 1.2 0.9 2 3 2.2l1.4 0.2c2.2 0.3 3.8 1.1 3.8 3.2 0 2.4-2.2 3.6-4.9 3.6-1.7 0-3.4-0.5-4.8-1.5l0.6-0.9c1.2 0.9 2.7 1.4 4.2 1.4 2.1 0 3.7-0.8 3.7-2.5 0-1.3-1.1-2-3.1-2.2l-1.4-0.2c-2.3-0.3-3.6-1.3-3.6-3.2 0-2.3 2-3.6 4.6-3.6 1.6 0 3.1 0.5 4.4 1.4l-0.6 0.9c-1.1-0.9-2.5-1.3-3.9-1.3z"/>
		<path class="st10" d="m290.9 196.7c0.1 1.4-0.8 2.6-2.1 3 1.4 0.3 2.4 1.5 2.4 3 0 2.3-2 3.4-4.2 3.4-1.5 0.1-2.9-0.5-3.9-1.5l0.7-0.7c0.8 0.8 2 1.3 3.2 1.3 1.7 0 3.1-0.8 3.1-2.5 0-1.5-1.4-2.4-3.2-2.4h-1.7v-1h1.7c1.6 0 2.9-0.8 2.9-2.4 0-1.4-1.3-2.4-3-2.4-1.1 0-2.2 0.5-2.9 1.4l-0.8-0.6c0.9-1.2 2.2-1.8 3.7-1.8 2.5-0.1 4.1 1.2 4.1 3.2z"/>
	<rect class="st6" x="89.6" y="442.8" width="607" height="80"/>
		<path class="st10" d="m280.4 410.1c0.1 1.3-0.8 2.5-2.1 2.8 1.4 0.3 2.4 1.5 2.4 3 0 2.4-1.7 3.4-4.4 3.4h-5v-12.4h4.8c2.5 0 4.3 1 4.3 3.2zm-8.1 2.4h3.7c1.9 0 3.3-0.5 3.3-2.3 0-1.7-1.4-2.3-3.3-2.3h-3.7v4.6zm0 5.8h3.9c2 0 3.3-0.6 3.3-2.4s-1.3-2.4-3.3-2.4h-3.9v4.8z"/>
		<path class="st10" d="m283.6 419.3v-12.4h1.1v11.3h7.3v1h-8.4z"/>
		<path class="st10" d="m305.5 413.1c0 3.5-2.8 6.3-6.3 6.3s-6.3-2.8-6.3-6.3 2.8-6.3 6.3-6.3c3.4-0.1 6.2 2.5 6.3 5.9v0.4zm-11.6 0c0 2.9 2.4 5.2 5.3 5.1 2.9 0 5.2-2.4 5.1-5.3 0-2.8-2.4-5.1-5.2-5.1-2.8-0.1-5.1 2.1-5.2 4.9v0.4z"/>
		<path class="st10" d="m317.5 410.1c0.1 1.3-0.8 2.5-2.1 2.8 1.4 0.3 2.4 1.5 2.4 3 0 2.4-1.7 3.4-4.4 3.4h-5v-12.4h4.8c2.5 0 4.3 1 4.3 3.2zm-8 2.4h3.7c1.9 0 3.3-0.5 3.3-2.3 0-1.7-1.4-2.3-3.3-2.3h-3.7v4.6zm0 5.8h3.9c2 0 3.3-0.6 3.3-2.4s-1.3-2.4-3.3-2.4h-3.9v4.8z"/>
		<path class="st10" d="m564.5 300.7c0.1 1.3-0.8 2.5-2.1 2.8 1.4 0.3 2.4 1.5 2.4 3 0 2.4-1.7 3.4-4.4 3.4h-5v-12.4h4.8c2.5 0 4.3 0.9 4.3 3.2zm-8.1 2.3h3.7c1.9 0 3.3-0.5 3.3-2.3 0-1.7-1.4-2.3-3.3-2.3h-3.7v4.6zm0 5.8h3.9c2 0 3.3-0.6 3.3-2.4s-1.3-2.4-3.3-2.4h-3.9v4.8z"/>
		<path class="st10" d="m567.7 309.8v-12.4h1.1v11.3h7.3v1l-8.4 0.1z"/>
		<path class="st10" d="m589.6 303.7c0 3.5-2.8 6.3-6.3 6.3s-6.3-2.8-6.3-6.3 2.8-6.3 6.3-6.3c3.4-0.1 6.2 2.5 6.3 5.9v0.4zm-11.6 0c0 2.9 2.4 5.2 5.3 5.1 2.9 0 5.2-2.4 5.1-5.3 0-2.8-2.4-5.1-5.2-5.1-2.8-0.1-5.1 2.1-5.2 4.9v0.4z"/>
		<path class="st10" d="m601.7 300.7c0.1 1.3-0.8 2.5-2.1 2.8 1.4 0.3 2.4 1.5 2.4 3 0 2.4-1.7 3.4-4.4 3.4h-5v-12.4h4.8c2.5 0 4.3 0.9 4.3 3.2zm-8.1 2.3h3.7c1.9 0 3.3-0.5 3.3-2.3 0-1.7-1.4-2.3-3.3-2.3h-3.7v4.6zm0 5.8h3.9c2 0 3.3-0.6 3.3-2.4s-1.3-2.4-3.3-2.4h-3.9v4.8z"/>
		<path class="st11" d="m285.6 492.3l-2.3-5.4h-9.7l-2.3 5.4h-1.7l7.8-18.6h2l7.8 18.6h-1.6zm-2.9-7l-4.2-10-4.2 10h8.4z"/>
		<path class="st11" d="m291.6 490.9h8.8v1.4h-10.8v-1.1l8.7-10h-8.5v-1.4h10.4v1.1l-8.6 10z"/>
		<path class="st11" d="m309.9 492.5c-3.1 0-5.6-1.8-5.6-5.4v-7.3h1.5v7.2c0 2.7 1.7 4.1 4.1 4.1s4.1-1.4 4.1-4.1v-7.2h1.5v7.3c0 3.6-2.5 5.4-5.6 5.4z"/>
		<path class="st11" d="m327.9 480.1l-0.4 1.5c-0.6-0.3-1.5-0.5-2.2-0.5-2.1 0-3.6 1.7-3.6 4.2v7h-1.5v-12.5h1.5v2.1c0.8-1.5 2.2-2.3 3.9-2.3 0.8 0 1.6 0.2 2.3 0.5z"/>
		<path class="st11" d="m341.5 486v0.6h-10.5c0.2 2.9 2.3 4.6 4.8 4.6 1.8 0 3.1-0.7 4.2-1.8l0.8 1c-1.6 1.6-3.3 2.1-5.1 2.1-3.7 0-6.3-2.6-6.3-6.4s2.7-6.5 6.2-6.5c3.4 0 5.9 2.7 5.9 6.4zm-10.4-0.7h8.9c-0.2-2.6-2-4.4-4.3-4.4-2.6 0.1-4.4 1.9-4.6 4.4z"/>
		<path class="st11" d="m366.5 478.5c0 2.2-1.3 3.7-3.2 4.2 2.1 0.5 3.6 2 3.6 4.5 0 3.6-2.6 5.1-6.7 5.1h-7.5v-18.6h7.2c3.9 0 6.6 1.4 6.6 4.8zm-12.1 3.6h5.5c2.8 0 4.9-0.8 4.9-3.4s-2.1-3.4-4.9-3.4h-5.5v6.8zm0 8.7h5.8c3 0 5-0.9 5-3.6s-2-3.6-5-3.6h-5.8v7.2z"/>
		<path class="st11" d="M371,492.3v-19.1h1.5v19.1H371z"/>
		<path class="st11" d="m389.3 486.1c0 3.7-2.8 6.4-6.5 6.4s-6.5-2.8-6.5-6.4c0-3.7 2.8-6.5 6.5-6.5s6.5 2.8 6.5 6.5zm-11.4 0c0 2.9 2.1 5 4.9 5s5-2.1 5-5-2.1-5-5-5c-2.8-0.1-4.9 2.1-4.9 5z"/>
		<path class="st11" d="m405.9 486.1c0 3.7-2.7 6.4-6.3 6.4-2.3 0-3.9-1-4.9-2.6v2.4h-1.5v-19.1h1.5v9c1-1.5 2.7-2.6 4.9-2.6 3.5 0 6.3 2.8 6.3 6.5zm-11.3 0c0 2.9 2 5 4.9 5s4.9-2.2 4.9-5-2-5-4.9-5c-2.9-0.1-4.9 2.1-4.9 5z"/>
		<path class="st11" d="m423.4 475.1c-3 0-5.2 1.4-5.2 3.7 0 1.8 1.4 3 4.5 3.3l2 0.2c3.3 0.4 5.7 1.7 5.7 4.8 0 3.6-3.3 5.4-7.3 5.4-2.8 0-5.6-1-7.2-2.3l0.9-1.3c1.3 1 3.7 2.1 6.3 2.1 3.1 0 5.6-1.2 5.6-3.7 0-2-1.6-3-4.7-3.3l-2.1-0.2c-3.4-0.4-5.5-1.9-5.5-4.8 0-3.4 3.1-5.4 6.9-5.4 2.9 0 5 0.9 6.6 2l-0.8 1.3c-1.4-1-3.3-1.8-5.7-1.8z"/>
		<path class="st11" d="m437.1 481.2v6.8c0 2.1 1.1 3.1 2.8 3.1 1.1 0 2-0.4 2.8-1l0.7 1.1c-0.9 0.7-2.1 1.2-3.6 1.2-2.6 0-4.2-1.4-4.2-4.5v-6.8h-2.9v-1.4h2.9v-4.1h1.5v4.1h5.8v1.4h-5.8z"/>
		<path class="st11" d="m458.3 486.1c0 3.7-2.8 6.4-6.5 6.4s-6.5-2.8-6.5-6.4c0-3.7 2.8-6.5 6.5-6.5s6.5 2.8 6.5 6.5zm-11.4 0c0 2.9 2.1 5 4.9 5s5-2.1 5-5-2.1-5-5-5c-2.8-0.1-4.9 2.1-4.9 5z"/>
		<path class="st11" d="m469.8 480.1l-0.4 1.5c-0.6-0.3-1.5-0.5-2.2-0.5-2.1 0-3.6 1.7-3.6 4.2v7h-1.5v-12.5h1.5v2.1c0.8-1.5 2.2-2.3 3.8-2.3 1 0 1.8 0.2 2.4 0.5z"/>
		<path class="st11" d="m482.6 492.3v-2.4c-1 1.6-2.7 2.6-5 2.6-3.5 0-6.2-2.7-6.2-6.4s2.7-6.5 6.2-6.5c2.3 0 3.9 1 5 2.6v-2.4h1.5v12.5h-1.5zm-9.6-6.2c0 2.8 2 5 4.9 5 2.8 0 4.9-2.2 4.9-5 0-2.9-2-5-4.9-5-2.9-0.1-4.9 2.2-4.9 5z"/>
		<path class="st11" d="m499 482.3v-2.4h1.5v11.6c0 4.1-2.9 6.3-6.6 6.3-2 0-4-0.7-5.3-1.8l0.8-1.1c1.2 0.9 2.7 1.5 4.5 1.5 2.8 0 5-1.6 5-4.9v-1.8c-1 1.6-2.6 2.6-4.9 2.6-3.5 0-6.2-2.6-6.2-6.4 0-3.7 2.7-6.4 6.2-6.4 2.4 0.1 4.1 1.2 5 2.8zm-9.5 3.7c0 2.8 2 5 4.8 5s4.8-2.1 4.8-5c0-2.8-2-5-4.8-5s-4.8 2.2-4.8 5z"/>
		<path class="st11" d="m516.4 486v0.6h-10.5c0.2 2.9 2.3 4.6 4.8 4.6 1.8 0 3.1-0.7 4.2-1.8l0.8 1c-1.6 1.6-3.3 2.1-5.1 2.1-3.7 0-6.3-2.6-6.3-6.4s2.7-6.5 6.2-6.5c3.4 0 5.9 2.7 5.9 6.4zm-10.5-0.7h8.9c-0.2-2.6-2-4.4-4.3-4.4-2.5 0.1-4.3 1.9-4.6 4.4z"/>
	<rect class="st12" x="123.7" y="255.4" width="275" height="123.5"/>
		<path class="st11" d="m239.9 326.4v-16.7l-7.1 14.5h-1.7l-7.1-14.4v16.6h-1.6v-18.5h2.4l7.1 14.5 7.1-14.5h2.4v18.5h-1.5z"/>
		<path class="st11" d="M247,326.4v-18.5h1.6v18.5H247z"/>
		<path class="st11" d="m268 326.4l-12.1-15.8v15.8h-1.6v-18.5h1.5l12.2 15.8v-15.8h1.6v18.5h-1.6z"/>
		<path class="st11" d="M275,326.4v-18.5h1.6v18.5H275z"/>
		<path class="st11" d="m300.1 317.1c0 5.2-4.2 9.5-9.5 9.5s-9.5-4.2-9.5-9.5c0-5.2 4.2-9.5 9.5-9.5 5.1-0.2 9.3 3.8 9.5 8.9v0.6zm-17.4 0c0.1 4.3 3.6 7.8 7.9 7.7s7.8-3.6 7.7-7.9-3.5-7.7-7.8-7.7c-4.2-0.1-7.7 3.2-7.8 7.4v0.5z"/>
		<line class="st6" x1="261.2" x2="261.2" y1="443.3" y2="388.7"/>
		<polygon class="st7" points="267.3 390.5 261.2 380 255.2 390.5"/>
		<path class="st10" d="m410.3 592.6c-2.6 0.2-4.8-1.7-5-4.3v-0.7-7.6h1.1v7.5c0 2.2 1.7 4 3.9 4s4-1.7 4-3.9v-0.1-7.5h1.1v7.6c0.2 2.6-1.8 4.8-4.3 5-0.3 0.1-0.5 0.1-0.8 0z"/>
		<path class="st10" d="m426.1 587.4v5.1h-1v-4.8c0.1-1.4-0.8-2.6-2.2-2.7h-0.5c-1.5-0.1-2.7 1.1-2.8 2.6v0.2 4.7h-1v-8.3h1v1.5c0.6-1 1.8-1.6 3-1.6 1.8-0.2 3.3 1.2 3.5 2.9v0.4z"/>
		<path class="st10" d="m430.4 581.2c0 0.4-0.3 0.7-0.7 0.7s-0.7-0.3-0.7-0.7 0.3-0.7 0.7-0.7 0.7 0.3 0.7 0.7zm-1.2 11.3v-8.3h1v8.3h-1z"/>
		<path class="st10" d="m435.3 585.1v7.4h-1v-7.4h-2v-0.9h2v-1.4c0-1.8 0.8-3.1 2.7-3.1 0.8 0 1.6 0.2 2.2 0.6l-0.4 0.8c-0.6-0.3-1.2-0.5-1.8-0.5-1.3 0-1.8 0.8-1.8 2.2v1.4h3.6v0.9h-3.5z"/>
		<path class="st10" d="m442.4 581.2c0 0.4-0.3 0.7-0.7 0.7s-0.7-0.3-0.7-0.7 0.3-0.7 0.7-0.7 0.7 0.3 0.7 0.7zm-1.2 11.3v-8.3h1v8.3h-1z"/>
		<path class="st10" d="m452.7 588.3v0.4h-7c0 1.7 1.4 3.1 3.2 3h0.1c1.1 0 2.1-0.4 2.8-1.2l0.5 0.7c-0.9 0.9-2.1 1.4-3.4 1.4-2.4-0.1-4.2-2-4.2-4.4 0.1-2.3 1.9-4.1 4.1-4.2 2.2 0 3.9 1.8 3.9 4v0.3zm-6.9-0.5h5.9c0-1.6-1.3-2.9-2.9-2.9s-3 1.3-3 2.9z"/>
		<path class="st10" d="m462.1 585.8v-6h1v12.7h-1v-1.6c-0.7 1.1-2 1.8-3.3 1.7-2.4-0.1-4.2-2.1-4.1-4.4s1.9-4.1 4.1-4.1c1.3-0.1 2.5 0.6 3.3 1.7zm-6.5 2.5c0.1 1.8 1.6 3.2 3.3 3.1 1.8-0.1 3.2-1.6 3.1-3.3s-1.5-3.1-3.2-3.1c-1.8 0-3.2 1.4-3.2 3.2v0.1z"/>
		<path class="st10" d="m480 592.5l-1.5-3.6h-6.4l-1.5 3.6h-1.1l5.2-12.4h1.3l5.2 12.4h-1.2zm-1.9-4.6l-2.8-6.7-2.8 6.7h5.6z"/>
		<path class="st10" d="m497.1 587.4v5.1h-1v-4.8c0.1-1.4-0.9-2.6-2.2-2.7h-0.5c-1.5-0.1-2.7 1.1-2.8 2.6v0.2 4.7h-1v-4.8c0.1-1.4-0.8-2.6-2.2-2.7h-0.5c-1.5-0.1-2.7 1.1-2.8 2.6v0.2 4.7h-1v-8.3h1v1.5c0.6-1 1.8-1.6 3-1.6 1.4-0.1 2.7 0.7 3.2 1.9 0.6-1.2 1.9-2 3.2-1.9 1.8-0.2 3.3 1.2 3.5 2.9 0.1 0.1 0.1 0.3 0.1 0.4z"/>
		<path class="st10" d="m507 592.5v-1.6c-0.7 1.1-2 1.8-3.3 1.7-2.4-0.1-4.2-2.1-4.1-4.4s1.9-4.1 4.1-4.1c1.3 0 2.6 0.6 3.3 1.7v-1.6h1v8.3h-1zm-6.5-4.2c0.1 1.8 1.6 3.2 3.3 3.1 1.8-0.1 3.2-1.6 3.1-3.3s-1.5-3.1-3.2-3.1c-1.8 0-3.2 1.4-3.2 3.2v0.1z"/>
		<path class="st10" d="m512 591.6h5.8v0.9h-7.2v-0.7l5.8-6.7h-5.6v-0.9h6.9v0.7l-5.7 6.7z"/>
		<path class="st10" d="m528.3 588.3c0 2.4-1.9 4.3-4.3 4.3s-4.3-1.9-4.3-4.3 1.9-4.3 4.3-4.3c2.3-0.1 4.3 1.8 4.3 4.1v0.2zm-7.6 0c0 1.8 1.5 3.3 3.3 3.2 1.8 0 3.3-1.5 3.2-3.3 0-1.8-1.5-3.2-3.3-3.2s-3.3 1.4-3.3 3.2c0.1 0 0.1 0.1 0.1 0.1z"/>
		<path class="st10" d="m538.3 587.4v5.1h-1v-4.8c0.1-1.4-0.8-2.6-2.2-2.7h-0.5c-1.5-0.1-2.7 1.1-2.8 2.6v0.2 4.7h-1v-8.3h1v1.5c0.6-1 1.8-1.6 3-1.6 1.8-0.2 3.3 1.2 3.5 2.9v0.4z"/>
		<path class="st10" d="m550.6 581c-2 0-3.4 0.9-3.4 2.5 0 1.2 0.9 2 3 2.2l1.4 0.1c2.2 0.3 3.8 1.1 3.8 3.2 0 2.4-2.2 3.6-4.9 3.6-1.7 0-3.4-0.5-4.8-1.5l0.6-0.9c1.2 0.9 2.7 1.4 4.2 1.4 2.1 0 3.7-0.8 3.7-2.5 0-1.3-1.1-2-3.1-2.2l-1.4-0.2c-2.3-0.3-3.6-1.3-3.6-3.2 0-2.3 2-3.6 4.6-3.6 1.6 0 3.1 0.5 4.4 1.4l-0.6 0.9c-1.2-0.8-2.6-1.2-3.9-1.2z"/>
		<path class="st10" d="m565.3 583.3c0.1 1.4-0.8 2.6-2.1 3 1.4 0.3 2.4 1.5 2.4 3 0 2.3-2 3.4-4.2 3.4-1.5 0.1-2.9-0.5-3.9-1.5l0.7-0.7c0.8 0.8 2 1.3 3.2 1.3 1.7 0 3.1-0.8 3.1-2.5 0-1.5-1.4-2.4-3.2-2.4h-1.7v-1h1.7c1.6 0 2.9-0.8 2.9-2.4 0-1.4-1.3-2.4-3-2.4-1.1 0-2.2 0.5-2.9 1.5l-0.8-0.6c0.9-1.2 2.2-1.8 3.7-1.8 2.5-0.2 4.1 1.2 4.1 3.1z"/>
		<path class="st10" d="m580.1 592.5v-1.6c-0.7 1.1-2 1.8-3.3 1.7-2.4-0.1-4.2-2.1-4.1-4.4s1.9-4.1 4.1-4.1c1.3 0 2.6 0.6 3.3 1.7v-1.6h1v8.3h-1zm-6.4-4.2c0.1 1.8 1.6 3.2 3.3 3.1 1.8-0.1 3.2-1.6 3.1-3.3s-1.5-3.1-3.2-3.1c-1.8 0-3.2 1.4-3.2 3.2v0.1z"/>
		<path class="st10" d="m591.8 587.4v5.1h-1v-4.8c0.1-1.4-0.8-2.6-2.2-2.7h-0.5c-1.5-0.1-2.7 1.1-2.8 2.6v0.2 4.7h-1v-8.3h1v1.5c0.6-1 1.8-1.6 3-1.6 1.8-0.2 3.3 1.2 3.5 2.9v0.4z"/>
		<path class="st10" d="m601.7 585.8v-6h1v12.7h-1v-1.6c-0.7 1.1-2 1.8-3.3 1.7-2.4-0.1-4.2-2.1-4.1-4.4s1.9-4.1 4.1-4.1c1.3-0.1 2.6 0.6 3.3 1.7zm-6.4 2.5c0.1 1.8 1.6 3.2 3.3 3.1 1.8-0.1 3.2-1.6 3.1-3.3s-1.5-3.1-3.2-3.1c-1.8 0-3.2 1.4-3.2 3.2-0.1 0 0 0.1 0 0.1z"/>
		<path class="st10" d="m622.5 592.5v-11.1l-4.7 9.7h-1.1l-4.7-9.6v11.1h-1.1v-12.4h1.6l4.7 9.6 4.7-9.6h1.6v12.4l-1-0.1z"/>
		<path class="st10" d="m628.2 581.2c0 0.4-0.3 0.7-0.7 0.7s-0.7-0.3-0.7-0.7 0.3-0.7 0.7-0.7 0.7 0.3 0.7 0.7zm-1.2 11.3v-8.3h1v8.3h-1z"/>
		<path class="st10" d="m637.9 585.3l-0.7 0.7c-0.6-0.7-1.5-1-2.4-1-1.8 0.1-3.3 1.6-3.2 3.5 0.1 1.7 1.5 3.1 3.2 3.2 0.9 0 1.8-0.4 2.5-1l0.6 0.7c-0.8 0.9-1.9 1.3-3.1 1.3-2.4 0-4.3-2-4.3-4.3s1.9-4.2 4.3-4.3c1.2-0.1 2.3 0.4 3.1 1.2z"/>
		<path class="st10" d="m645.4 584.4l-0.3 1c-0.5-0.2-1-0.3-1.5-0.3-1.4 0-2.4 1.1-2.4 2.8v4.7h-1v-8.3h1v1.4c0.5-1 1.5-1.6 2.6-1.6 0.6-0.1 1.1 0 1.6 0.3z"/>
		<path class="st10" d="m655.1 588.3c0 2.4-1.9 4.3-4.3 4.3s-4.3-1.9-4.3-4.3 1.9-4.3 4.3-4.3c2.3-0.1 4.3 1.8 4.3 4.1v0.2zm-7.6 0c0 1.8 1.5 3.3 3.3 3.2 1.8 0 3.3-1.5 3.2-3.3 0-1.8-1.5-3.2-3.3-3.2s-3.3 1.4-3.3 3.2c0.1 0 0.1 0.1 0.1 0.1z"/>
		<path class="st10" d="m660.4 584.9c-1.3 0-2.2 0.6-2.2 1.5 0 0.8 0.6 1.2 1.9 1.3l1.1 0.1c1.7 0.2 2.7 0.9 2.7 2.2 0 1.6-1.4 2.5-3.6 2.5-1.2 0-2.4-0.3-3.4-1.1l0.5-0.8c0.8 0.7 1.9 1 3 0.9 1.5 0 2.5-0.5 2.5-1.6 0-0.8-0.6-1.2-1.9-1.4l-1.1-0.1c-1.9-0.2-2.7-1-2.7-2.2 0-1.5 1.3-2.4 3.2-2.4 1.2 0 2.3 0.3 3.3 0.9l-0.4 0.8c-1-0.3-1.9-0.6-2.9-0.6z"/>
		<path class="st10" d="m674.2 588.3c0 2.4-1.9 4.3-4.3 4.3s-4.3-1.9-4.3-4.3 1.9-4.3 4.3-4.3c2.3-0.1 4.3 1.8 4.3 4.1v0.2zm-7.6 0c0 1.8 1.5 3.3 3.3 3.2 1.8 0 3.3-1.5 3.2-3.3 0-1.8-1.5-3.2-3.3-3.2s-3.3 1.4-3.3 3.2c0.1 0 0.1 0.1 0.1 0.1z"/>
		<path class="st10" d="m678.6 585.1v7.4h-1v-7.4h-2v-0.9h2v-1.4c0-1.8 0.8-3.1 2.7-3.1 0.8 0 1.6 0.2 2.2 0.6l-0.4 0.8c-0.6-0.3-1.2-0.5-1.8-0.5-1.3 0-1.8 0.8-1.8 2.2v1.4h3.6v0.9h-3.5z"/>
		<path class="st10" d="m686 585.1v4.5c0 1.4 0.7 2 1.8 2 0.7 0 1.3-0.2 1.9-0.6l0.5 0.8c-0.7 0.6-1.5 0.8-2.4 0.8-1.7 0-2.8-1-2.8-3v-4.6h-1.9v-0.9h1.9v-2.7h1v2.7h3.8v0.9l-3.8 0.1z"/>
		<path class="st10" d="m706.2 583.3c0.1 1.3-0.8 2.5-2.1 2.8 1.4 0.3 2.4 1.5 2.4 3 0 2.4-1.7 3.4-4.4 3.4h-5v-12.4h4.8c2.5 0 4.3 0.9 4.3 3.2zm-8 2.4h3.7c1.9 0 3.3-0.5 3.3-2.3 0-1.7-1.4-2.3-3.3-2.3h-3.7v4.6zm0 5.8h3.9c2 0 3.3-0.6 3.3-2.4s-1.3-2.4-3.3-2.4h-3.9v4.8z"/>
		<path class="st10" d="m709.2 592.5v-12.7h1v12.7h-1z"/>
		<path class="st10" d="m721.4 588.3c0 2.4-1.9 4.3-4.3 4.3s-4.3-1.9-4.3-4.3 1.9-4.3 4.3-4.3c2.3-0.1 4.3 1.8 4.3 4.1v0.2zm-7.6 0c0 1.8 1.5 3.3 3.3 3.2 1.8 0 3.3-1.5 3.2-3.3 0-1.8-1.5-3.2-3.3-3.2s-3.3 1.4-3.3 3.2c0.1 0 0.1 0.1 0.1 0.1z"/>
		<path class="st10" d="m732.4 588.3c0.1 2.3-1.7 4.2-4 4.3h-0.2c-1.3 0-2.6-0.6-3.3-1.7v1.6h-1v-12.7h1v6c0.7-1.1 2-1.8 3.3-1.7 2.3 0 4.2 1.8 4.2 4.1v0.1zm-7.5 0c0.1 1.8 1.6 3.2 3.3 3.1 1.8-0.1 3.2-1.6 3.1-3.3s-1.5-3.1-3.2-3.1c-1.8 0-3.2 1.4-3.2 3.2v0.1z"/>
		<path class="st10" d="m748.7 592.5l-1.5-3.6h-6.4l-1.5 3.6h-1.1l5.2-12.4h1.3l5.2 12.4h-1.2zm-1.9-4.6l-2.8-6.7-2.8 6.7h5.6z"/>
		<path class="st10" d="m753.1 592.5h-1.1v-12.4h4.6c2.7 0 4.4 1.4 4.4 3.7s-1.6 3.7-4.4 3.7h-3.5v5zm0-6.1h3.5c2.1 0 3.3-0.9 3.3-2.6s-1.2-2.6-3.3-2.6h-3.5v5.2z"/>
		<path class="st10" d="m763.8 592.5v-12.4h1.1v12.4h-1.1z"/>
</svg>
