<svg id="Layer_1" data-name="Layer 1" xmlns="http://www.w3.org/2000/svg" viewBox="0 0 786.15 665.43">
  <defs>
    <style>
      .cls-1, .cls-6, .cls-7 {
        fill: #fff;
      }

      .cls-11, .cls-2, .cls-3, .cls-4, .cls-5, .cls-8 {
        fill: none;
      }

      .cls-2 {
        stroke: #cecece;
        stroke-width: 0.5px;
      }

      .cls-11, .cls-2, .cls-3, .cls-4, .cls-5, .cls-6, .cls-7, .cls-8 {
        stroke-miterlimit: 10;
      }

      .cls-3, .cls-4, .cls-5, .cls-6 {
        stroke: #ffccb8;
      }

      .cls-3, .cls-4, .cls-5, .cls-6, .cls-7 {
        stroke-width: 1.256px;
      }

      .cls-4 {
        stroke-dasharray: 6.59947 4.39996;
      }

      .cls-5 {
        stroke-dasharray: 6.62201 4.41499;
      }

      .cls-7 {
        stroke: #f29379;
      }

      .cls-11, .cls-8 {
        stroke: #b1b1b1;
      }

      .cls-8 {
        stroke-width: 1.10391px;
      }

      .cls-9 {
        fill: #b1b1b1;
      }

      .cls-10 {
        fill: #4d4d4d;
      }

      .cls-11 {
        stroke-width: 1.104px;
      }

      .cls-12 {
        fill: #666;
      }

      .cls-13 {
        fill: #333;
      }

      .cls-14 {
        fill: gray;
      }
    </style>
  </defs>
  <title>arch_diag</title>
  <g>
    <g>
      <rect class="cls-1" x="1.25097" y="1.24865" width="783.64806" height="662.9327"/>
      <rect class="cls-2" x="1.25097" y="1.24865" width="783.64806" height="662.9327"/>
    </g>
    <g>
      <rect class="cls-1" x="144.30025" y="236.37366" width="275.00948" height="143.48193"/>
      <g>
        <polyline class="cls-3" points="419.31 376.544 419.31 379.856 415.998 379.856"/>
        <line class="cls-4" x1="411.59803" y1="379.85558" x2="149.8119" y2="379.85558"/>
        <polyline class="cls-3" points="147.612 379.856 144.3 379.856 144.3 376.544"/>
        <line class="cls-5" x1="144.30018" y1="372.12914" x2="144.30018" y2="241.89269"/>
        <polyline class="cls-3" points="144.3 239.685 144.3 236.374 147.612 236.374"/>
        <line class="cls-4" x1="152.01161" y1="236.37364" x2="413.79823" y2="236.37364"/>
        <polyline class="cls-3" points="415.998 236.374 419.31 236.374 419.31 239.685"/>
        <line class="cls-5" x1="419.30995" y1="244.10021" x2="419.30995" y2="374.33666"/>
      </g>
    </g>
    <rect class="cls-6" x="129.01034" y="251.66357" width="275.00948" height="143.48193"/>
    <rect class="cls-7" x="113.72043" y="266.95348" width="275.00948" height="143.48193"/>
    <g>
      <line class="cls-8" x1="251.22499" y1="266.95348" x2="251.22499" y2="175.37645"/>
      <polygon class="cls-9" points="257.28 177.148 251.225 166.662 245.17 177.148 257.28 177.148"/>
    </g>
    <rect class="cls-8" x="89.56394" y="91.11038" width="607.02211" height="75"/>
    <g>
      <path class="cls-10" d="M341.595,134.34707l-1.876-4.51221h-8.03125l-1.875,4.51221h-1.40137l6.48633-15.44482H336.553l6.4873,15.44482Zm-2.416-5.79175-3.47559-8.34033-3.47461,8.34033Z"/>
      <path class="cls-10" d="M356.04521,129.162a5.16649,5.16649,0,0,1-5.19629,5.35059,4.65741,4.65741,0,0,1-4.09277-2.14038v6.3877h-1.25781V123.966h1.25781v1.97461a4.66808,4.66808,0,0,1,4.09277-2.14014A5.1757,5.1757,0,0,1,356.04521,129.162Zm-9.37793,0a4.04572,4.04572,0,1,0,4.03809-4.18115A3.99069,3.99069,0,0,0,346.66729,129.162Z"/>
      <path class="cls-10" d="M369.78936,129.162a5.16649,5.16649,0,0,1-5.19629,5.35059,4.65741,4.65741,0,0,1-4.09277-2.14038v6.3877h-1.25781V123.966h1.25781v1.97461a4.66808,4.66808,0,0,1,4.09277-2.14014A5.1757,5.1757,0,0,1,369.78936,129.162Zm-9.37793,0a4.04572,4.04572,0,1,0,4.03809-4.18115A3.99069,3.99069,0,0,0,360.41143,129.162Z"/>
      <path class="cls-10" d="M372.98564,134.34707V118.46084h1.25781v15.88623Z"/>
      <path class="cls-10" d="M379.78447,120.237a.87213.87213,0,0,1-.9043.89355.86334.86334,0,0,1-.89355-.89355.89908.89908,0,1,1,1.79785,0Zm-1.5332,14.11011V123.966h1.25781v10.3811Z"/>
      <path class="cls-10" d="M391.83525,125.411l-.81641.84961a4.16964,4.16964,0,0,0-3.04492-1.27979,4.1793,4.1793,0,0,0,0,8.35132,4.32582,4.32582,0,0,0,3.07813-1.29077l.7832.86035a5.00838,5.00838,0,0,1-3.82812,1.61084,5.35622,5.35622,0,0,1,0-10.71216A4.992,4.992,0,0,1,391.83525,125.411Z"/>
      <path class="cls-10" d="M403.1165,134.34707v-1.99683a4.65375,4.65375,0,0,1-4.11523,2.16235,5.35892,5.35892,0,0,1,0-10.71216,4.70107,4.70107,0,0,1,4.11523,2.16235V123.966h1.24707v10.3811ZM395.096,129.162a4.04572,4.04572,0,1,0,4.04883-4.18115A4.00572,4.00572,0,0,0,395.096,129.162Z"/>
      <path class="cls-10" d="M410.6165,125.11319v5.65942c0,1.75415.92676,2.55957,2.30566,2.55957a3.74554,3.74554,0,0,0,2.31738-.79443l.5957.93774a4.65778,4.65778,0,0,1-3.01172,1.03711c-2.16309,0-3.46484-1.20264-3.46484-3.71777v-5.68164h-2.38281V123.966h2.38281v-3.387h1.25781v3.387h4.78809v1.14722Z"/>
      <path class="cls-10" d="M419.889,120.237a.87213.87213,0,0,1-.9043.89355.86334.86334,0,0,1-.89355-.89355.89908.89908,0,1,1,1.79785,0Zm-1.5332,14.11011V123.966h1.25781v10.3811Z"/>
      <path class="cls-10" d="M433.5833,129.162a5.39463,5.39463,0,1,1-5.40527-5.36157A5.26593,5.26593,0,0,1,433.5833,129.162Zm-9.50977,0a4.11,4.11,0,1,0,4.10449-4.18115A4.03118,4.03118,0,0,0,424.07354,129.162Z"/>
      <path class="cls-10" d="M446.10283,127.9816v6.36548H444.845v-5.97949a3.07539,3.07539,0,0,0-3.332-3.37573,3.35919,3.35919,0,0,0-3.47461,3.44214v5.91309h-1.25781V123.966h1.24707V125.786a4.19049,4.19049,0,0,1,3.70605-1.9856A4.01862,4.01862,0,0,1,446.10283,127.9816Z"/>
      <path class="cls-10" d="M453.40264,124.90372c-1.62109,0-2.75781.69482-2.75781,1.87524,0,.97095.76172,1.4895,2.36133,1.677l1.32324.1543c2.17383.25391,3.40918,1.14746,3.40918,2.79126,0,1.97485-1.79785,3.11108-4.46777,3.11108a7.00143,7.00143,0,0,1-4.26953-1.324l.585-.93774a5.647,5.647,0,0,0,3.69531,1.16943c1.876,0,3.166-.65088,3.166-1.94165,0-.9707-.79395-1.54443-2.39355-1.72095l-1.335-.14331c-2.34961-.26489-3.36426-1.29077-3.36426-2.76929,0-1.89746,1.64355-3.04468,4.03711-3.04468a7.213,7.213,0,0,1,4.07129,1.16943l-.541.9707A6.56307,6.56307,0,0,0,453.40264,124.90372Z"/>
    </g>
    <g>
      <line class="cls-11" x1="545.34999" y1="494.31957" x2="545.34999" y2="174.82518"/>
      <polygon class="cls-9" points="551.406 176.597 545.35 166.11 539.295 176.597 551.406 176.597"/>
    </g>
    <g>
      <line class="cls-8" x1="251.22499" y1="494.87157" x2="251.22499" y2="418.19445"/>
      <polygon class="cls-9" points="257.28 419.966 251.225 409.48 245.17 419.966 257.28 419.966"/>
    </g>
    <g>
      <path class="cls-12" d="M266.14607,195.94979c-1.97949,0-3.44531.91895-3.44531,2.46509,0,1.228.91016,1.979,3.02148,2.21753l1.35156.15015c2.2002.2561,3.79883,1.10425,3.79883,3.17163,0,2.40308-2.2002,3.60474-4.85937,3.60474a8.06172,8.06172,0,0,1-4.78809-1.54614l.5918-.85693a7.18986,7.18986,0,0,0,4.1875,1.37817c2.09375,0,3.74609-.82153,3.74609-2.49146,0-1.34277-1.07812-1.98779-3.13672-2.22632l-1.4043-.15894c-2.26172-.25635-3.63086-1.26343-3.63086-3.17187,0-2.28809,2.03223-3.5603,4.57617-3.5603a7.47658,7.47658,0,0,1,4.417,1.3606l-.55566.87451A6.59254,6.59254,0,0,0,266.14607,195.94979Z"/>
      <path class="cls-12" d="M280.90388,198.22933a2.95013,2.95013,0,0,1-2.11133,2.95068,3.10225,3.10225,0,0,1,2.38574,2.95972c0,2.3147-2.041,3.41919-4.17871,3.41919a5.09816,5.09816,0,0,1-3.87012-1.54614l.66309-.698a4.403,4.403,0,0,0,3.17969,1.27222c1.65234,0,3.11914-.79517,3.11914-2.49146,0-1.53711-1.43164-2.43823-3.17187-2.43823h-1.70508V200.703h1.70508c1.626,0,2.89844-.83032,2.89844-2.42944,0-1.42236-1.27246-2.37671-2.99512-2.37671a3.5133,3.5133,0,0,0-2.85352,1.449l-.75977-.636a4.35906,4.35906,0,0,1,3.6748-1.78467C279.27888,194.92513,280.90388,196.28572,280.90388,198.22933Z"/>
    </g>
    <g>
      <path class="cls-12" d="M274.21638,437.91181l-.79492.76855a5.12653,5.12653,0,0,0-3.99316-1.83789,5.28418,5.28418,0,0,0-.05371,10.56641,4.51667,4.51667,0,0,0,4.78027-4.61133h-4.18848v-1.00732h5.35449a1.24147,1.24147,0,0,1,.01758.15869v.13281c0,3.64014-2.29687,6.36084-5.96387,6.36084A6.32136,6.32136,0,0,1,269.4283,435.8,6.23955,6.23955,0,0,1,274.21638,437.91181Z"/>
      <path class="cls-12" d="M288.88533,438.34442l-.90137.60107a4.82564,4.82564,0,0,0-4.09863-2.103,5.28368,5.28368,0,0,0,0,10.56641,4.77886,4.77886,0,0,0,4.08984-2.10254l.88379.645a5.87078,5.87078,0,0,1-4.97363,2.50049,6.32593,6.32593,0,1,1,0-12.65186A5.84209,5.84209,0,0,1,288.88533,438.34442Z"/>
      <path class="cls-12" d="M295.95662,436.83368c-1.97949,0-3.44531.91895-3.44531,2.46484,0,1.228.91016,1.979,3.02148,2.21777l1.35156.15039c2.2002.25586,3.79883,1.104,3.79883,3.17139,0,2.40332-2.2002,3.60449-4.85937,3.60449a8.06328,8.06328,0,0,1-4.78809-1.5459l.5918-.85693a7.18988,7.18988,0,0,0,4.1875,1.37842c2.09375,0,3.74609-.82178,3.74609-2.4917,0-1.34277-1.07812-1.98779-3.13672-2.22656l-1.4043-.15869c-2.26172-.25635-3.63086-1.26367-3.63086-3.17187,0-2.28809,2.03223-3.56055,4.57617-3.56055a7.4766,7.4766,0,0,1,4.417,1.36084l-.55664.87451A6.587,6.587,0,0,0,295.95662,436.83368Z"/>
      <path class="cls-12" d="M301.73787,450.07733l7.501-15.37256h1.10449l-7.501,15.37256Z"/>
      <path class="cls-12" d="M264.95369,469.63788a4.76622,4.76622,0,0,1-3.72852-1.64307l.72461-.74219a3.84038,3.84038,0,0,0,2.99512,1.35156c1.88184,0,3.21582-1.25439,3.21582-3.63086v-7.83643h1.07813v7.93359C269.23884,468.01239,267.39216,469.63788,264.95369,469.63788Z"/>
      <path class="cls-12" d="M277.01716,458.029c-1.97949,0-3.44531.91895-3.44531,2.46484,0,1.228.91016,1.979,3.02148,2.21777l1.35156.15039c2.2002.25586,3.79883,1.104,3.79883,3.17139,0,2.40332-2.2002,3.60449-4.85937,3.60449a8.06328,8.06328,0,0,1-4.78809-1.5459l.5918-.85693a7.18988,7.18988,0,0,0,4.1875,1.37842c2.09375,0,3.74609-.82178,3.74609-2.4917,0-1.34277-1.07812-1.98779-3.13672-2.22656l-1.4043-.15869c-2.26172-.25635-3.63086-1.26367-3.63086-3.17187,0-2.28809,2.03223-3.56055,4.57617-3.56055a7.4766,7.4766,0,0,1,4.417,1.36084l-.55664.87451A6.587,6.587,0,0,0,277.01716,458.029Z"/>
      <path class="cls-12" d="M296.59041,463.321a6.33448,6.33448,0,1,1-6.334-6.32568A6.12892,6.12892,0,0,1,296.59041,463.321Zm-11.54687,0a5.20854,5.20854,0,1,0,5.21289-5.2832A5.07257,5.07257,0,0,0,285.04353,463.321Z"/>
      <path class="cls-12" d="M308.7242,469.50556l-8.10156-10.51367-.00879,10.51367h-1.07812V457.13691h.97168l8.11035,10.51318V457.13691h1.07813v12.36865Z"/>
    </g>
    <g>
      <path class="cls-12" d="M566.47314,326.00077l-.79492.7688a5.12555,5.12555,0,0,0-3.99316-1.83765,5.28418,5.28418,0,0,0-.05371,10.56641,4.51706,4.51706,0,0,0,4.78027-4.61182h-4.18848v-1.00708h5.35449a1.24471,1.24471,0,0,1,.01758.15894v.13257c0,3.63989-2.29687,6.36108-5.96387,6.36108a6.32148,6.32148,0,0,1,.05371-12.64282A6.23936,6.23936,0,0,1,566.47314,326.00077Z"/>
      <path class="cls-12" d="M581.14208,326.43363l-.90137.60083a4.82583,4.82583,0,0,0-4.09863-2.10254,5.28368,5.28368,0,0,0,0,10.56641,4.77905,4.77905,0,0,0,4.08984-2.10278l.88379.645a5.87,5.87,0,0,1-4.97363,2.50024,6.32581,6.32581,0,1,1,0-12.65161A5.84151,5.84151,0,0,1,581.14208,326.43363Z"/>
      <path class="cls-12" d="M588.21337,324.92289c-1.97949,0-3.44531.91895-3.44531,2.46509,0,1.228.91016,1.979,3.02148,2.21753l1.35156.15015c2.2002.2561,3.79883,1.10425,3.79883,3.17163,0,2.40308-2.2002,3.60474-4.85937,3.60474a8.06172,8.06172,0,0,1-4.78809-1.54614l.5918-.85693a7.18986,7.18986,0,0,0,4.1875,1.37817c2.09375,0,3.74609-.82153,3.74609-2.49146,0-1.34277-1.07812-1.98779-3.13672-2.22632l-1.4043-.15894c-2.26172-.25635-3.63086-1.26343-3.63086-3.17187,0-2.28809,2.03223-3.5603,4.57617-3.5603a7.47658,7.47658,0,0,1,4.417,1.3606l-.55664.87451A6.587,6.587,0,0,0,588.21337,324.92289Z"/>
    </g>
    <g>
      <path class="cls-13" d="M269.94414,525.53837l-1.19238,1.15234a7.68275,7.68275,0,0,0-5.98633-2.75488,7.92162,7.92162,0,0,0-.0791,15.84033c4.23828,0,6.91309-2.67529,7.165-6.91357H263.573v-1.50977h8.02637a1.78087,1.78087,0,0,1,.02637.23828v.19873c0,5.45654-3.44336,9.53613-8.93945,9.53613a9.47667,9.47667,0,0,1,.0791-18.95312A9.35506,9.35506,0,0,1,269.94414,525.53837Z"/>
      <path class="cls-13" d="M287.72148,534.90214a6.47668,6.47668,0,1,1-6.48926-6.437A6.32141,6.32141,0,0,1,287.72148,534.90214Zm-11.417,0a4.93481,4.93481,0,1,0,4.92773-5.01953A4.83945,4.83945,0,0,0,276.30449,534.90214Z"/>
      <path class="cls-13" d="M303.51152,534.90214a6.47668,6.47668,0,1,1-6.48926-6.437A6.32141,6.32141,0,0,1,303.51152,534.90214Zm-11.417,0a4.93433,4.93433,0,1,0,4.92773-5.01953A4.83945,4.83945,0,0,0,292.09453,534.90214Z"/>
      <path class="cls-13" d="M317.39434,531.10087v-2.437h1.50977v11.61572c0,4.13232-2.874,6.30469-6.542,6.30469a7.9505,7.9505,0,0,1-5.24512-1.80176l.76758-1.09912a7.10791,7.10791,0,0,0,4.47754,1.52295c2.80762,0,5.03223-1.60254,5.03223-4.86035v-1.7749a5.44186,5.44186,0,0,1-4.86035,2.62256,6.36684,6.36684,0,0,1,0-12.72852A5.45186,5.45186,0,0,1,317.39434,531.10087Zm-9.50977,3.72168a4.816,4.816,0,1,0,4.80859-4.93994A4.7447,4.7447,0,0,0,307.88457,534.82255Z"/>
      <path class="cls-13" d="M323.71465,541.12724V522.055h1.51074v19.07227Z"/>
      <path class="cls-13" d="M341.05352,534.82255c0,.22559-.0127.42383-.02637.62256H330.577a4.658,4.658,0,0,0,4.82129,4.56982,5.76047,5.76047,0,0,0,4.21191-1.7749l.80762,1.03271a6.76418,6.76418,0,0,1-5.1123,2.05322,6.43421,6.43421,0,0,1-.09277-12.86084C338.53789,528.46513,341.01445,531.10087,341.05352,534.82255Zm-10.44922-.67529h8.91309a4.39232,4.39232,0,0,0-4.33105-4.34424A4.56833,4.56833,0,0,0,330.6043,534.14726Z"/>
      <path class="cls-13" d="M368.15605,526.1873l-1.35156.90088a7.23651,7.23651,0,0,0-6.14551-3.15234,7.92088,7.92088,0,0,0,0,15.84033,7.1679,7.1679,0,0,0,6.13281-3.15186l1.32422.9668a8.80015,8.80015,0,0,1-7.457,3.748,9.48316,9.48316,0,1,1,0-18.96631A8.76031,8.76031,0,0,1,368.15605,526.1873Z"/>
      <path class="cls-13" d="M372.14531,541.12724V522.055h1.50977v19.07227Z"/>
      <path class="cls-13" d="M390.42363,534.90214a6.47668,6.47668,0,1,1-6.48926-6.437A6.32141,6.32141,0,0,1,390.42363,534.90214Zm-11.417,0a4.93433,4.93433,0,1,0,4.92773-5.01953A4.83945,4.83945,0,0,0,379.00664,534.90214Z"/>
      <path class="cls-13" d="M399.698,541.326c-3.07324,0-5.58984-1.81445-5.58984-5.35107v-7.311H395.618v7.17871a4.07961,4.07961,0,0,0,8.15918,0v-7.17871h1.50977v7.311C405.28691,539.51151,402.75664,541.326,399.698,541.326Z"/>
      <path class="cls-13" d="M420.13652,531.06132V522.055h1.49707v19.07227h-1.49707v-2.39746a5.58427,5.58427,0,0,1-4.93945,2.59619,6.43379,6.43379,0,0,1,0-12.86084A5.641,5.641,0,0,1,420.13652,531.06132Zm-9.62891,3.84082a4.85721,4.85721,0,1,0,4.86133-5.01953A4.80852,4.80852,0,0,0,410.50762,534.90214Z"/>
      <path class="cls-13" d="M440.0877,523.92265c-2.9668,0-5.166,1.37744-5.166,3.69482,0,1.84131,1.36426,2.9668,4.53027,3.32471l2.02637.2251c3.29785.38428,5.69531,1.65576,5.69531,4.75488,0,3.60254-3.29785,5.40381-7.28516,5.40381a12.0898,12.0898,0,0,1-7.17871-2.31787l.8877-1.28467a10.77531,10.77531,0,0,0,6.27832,2.06592c3.13867,0,5.61523-1.23145,5.61523-3.73486,0-2.01318-1.61523-2.98-4.70215-3.3374l-2.10547-.23877c-3.39062-.38379-5.44336-1.894-5.44336-4.75439,0-3.43066,3.0459-5.33789,6.86035-5.33789a11.21142,11.21142,0,0,1,6.62207,2.03955l-.834,1.31152A9.87587,9.87587,0,0,0,440.0877,523.92265Z"/>
      <path class="cls-13" d="M453.7459,530.0413v6.79492c0,2.10547,1.1123,3.07227,2.76758,3.07227a4.49346,4.49346,0,0,0,2.78125-.95312l.71582,1.12549a5.59386,5.59386,0,0,1-3.61621,1.24512c-2.5957,0-4.15918-1.44385-4.15918-4.46338V530.0413H449.3748v-1.37744h2.86035v-4.06592h1.51074v4.06592h5.748v1.37744Z"/>
      <path class="cls-13" d="M474.92559,534.90214a6.47668,6.47668,0,1,1-6.48926-6.437A6.32141,6.32141,0,0,1,474.92559,534.90214Zm-11.417,0a4.93433,4.93433,0,1,0,4.92773-5.01953A4.83945,4.83945,0,0,0,463.50859,534.90214Z"/>
      <path class="cls-13" d="M486.41094,528.929l-.38379,1.47021a4.93374,4.93374,0,0,0-2.21191-.50342c-2.0791,0-3.5625,1.69531-3.5625,4.19873v7.03271h-1.49707V528.66386h1.4834V530.783a4.28527,4.28527,0,0,1,3.8418-2.33105A5.15962,5.15962,0,0,1,486.41094,528.929Z"/>
      <path class="cls-13" d="M499.18145,541.12724v-2.39746A5.58427,5.58427,0,0,1,494.242,541.326a6.43379,6.43379,0,0,1,0-12.86084,5.641,5.641,0,0,1,4.93945,2.59619v-2.39746h1.49707v12.46338Zm-9.62891-6.2251a4.85721,4.85721,0,1,0,4.86133-5.01953A4.80852,4.80852,0,0,0,489.55254,534.90214Z"/>
      <path class="cls-13" d="M515.54082,531.10087v-2.437h1.50977v11.61572c0,4.13232-2.874,6.30469-6.542,6.30469a7.9505,7.9505,0,0,1-5.24512-1.80176l.76758-1.09912a7.10791,7.10791,0,0,0,4.47754,1.52295c2.80762,0,5.03223-1.60254,5.03223-4.86035v-1.7749a5.44186,5.44186,0,0,1-4.86035,2.62256,6.36684,6.36684,0,0,1,0-12.72852A5.45186,5.45186,0,0,1,515.54082,531.10087Zm-9.50977,3.72168a4.816,4.816,0,1,0,4.80859-4.93994A4.7447,4.7447,0,0,0,506.03105,534.82255Z"/>
      <path class="cls-13" d="M532.88066,534.82255c0,.22559-.0127.42383-.02637.62256H522.4041a4.658,4.658,0,0,0,4.82129,4.56982,5.76047,5.76047,0,0,0,4.21191-1.7749l.80762,1.03271a6.76418,6.76418,0,0,1-5.1123,2.05322,6.43421,6.43421,0,0,1-.09277-12.86084C530.36406,528.46513,532.8416,531.10087,532.88066,534.82255Zm-10.44922-.67529h8.91309a4.39232,4.39232,0,0,0-4.33105-4.34424A4.56833,4.56833,0,0,0,522.43145,534.14726Z"/>
    </g>
    <g>
      <path class="cls-13" d="M229.8697,347.96569V331.26427L222.79646,345.767h-1.708l-7.07324-14.42334v16.62207H212.4V329.42321h2.4375l7.11133,14.45,7.09961-14.45h2.4375v18.54248Z"/>
      <path class="cls-13" d="M237.03865,347.96569V329.42321h1.61621v18.54248Z"/>
      <path class="cls-13" d="M257.98005,347.96569l-12.14551-15.76123-.01367,15.76123h-1.61523V329.42321h1.45605l12.15918,15.76123V329.42321h1.61523v18.54248Z"/>
      <path class="cls-13" d="M264.98982,347.96569V329.42321h1.61523v18.54248Z"/>
      <path class="cls-13" d="M290.05037,338.69445a9.49659,9.49659,0,1,1-9.49707-9.48315A9.189,9.189,0,0,1,290.05037,338.69445Zm-17.31152,0a7.8089,7.8089,0,1,0,7.81445-7.92017A7.60459,7.60459,0,0,0,272.73884,338.69445Z"/>
    </g>
    <g>
      <path class="cls-14" d="M214.10994,398.504h-1.07715V386.13531h4.59375c2.72949,0,4.374,1.36035,4.374,3.66626,0,2.3147-1.64453,3.6665-4.374,3.6665h-3.5166Zm0-6.06079h3.49023c2.07617,0,3.27734-.90112,3.27734-2.6416,0-1.74927-1.20117-2.65039-3.27734-2.65039h-3.49023Z"/>
      <path class="cls-14" d="M229.65486,390.367l-.25586.98071a3.29515,3.29515,0,0,0-1.47559-.33569c-1.3877,0-2.376,1.13086-2.376,2.80054V398.504h-.999v-8.31348h.98926v1.41357a2.85822,2.85822,0,0,1,2.5625-1.55493A3.44826,3.44826,0,0,1,229.65486,390.367Z"/>
      <path class="cls-14" d="M239.36189,394.35161a4.32039,4.32039,0,1,1-4.3291-4.2937A4.21711,4.21711,0,0,1,239.36189,394.35161Zm-7.61523,0a3.29151,3.29151,0,1,0,3.28613-3.34839A3.22769,3.22769,0,0,0,231.74666,394.35161Z"/>
      <path class="cls-14" d="M241.08943,402.14385a2.40031,2.40031,0,0,1-1.14941-.2915l.248-.86572a1.62022,1.62022,0,0,0,.82129.21191c.60059,0,.92773-.36206.92773-1.16626v-9.8418h1.00781v9.886C242.9449,401.42827,242.25545,402.14385,241.08943,402.14385Zm2.06738-14.9397a.6989.6989,0,0,1-.72461.71558.6917.6917,0,0,1-.71582-.71558.70619.70619,0,0,1,.71582-.73315A.71336.71336,0,0,1,243.15681,387.20415Z"/>
      <path class="cls-14" d="M253.50056,394.29864c0,.15015-.00977.28271-.01855.41528h-6.9707a3.10769,3.10769,0,0,0,3.2168,3.04785,3.83976,3.83976,0,0,0,2.80859-1.18384l.53906.68921a4.5122,4.5122,0,0,1-3.41016,1.36938,4.29183,4.29183,0,0,1-.06152-8.57861A3.97025,3.97025,0,0,1,253.50056,394.29864Zm-6.9707-.45068h5.94531a2.92981,2.92981,0,0,0-2.88867-2.89771A3.04773,3.04773,0,0,0,246.52986,393.848Z"/>
      <path class="cls-14" d="M262.71052,391.34771l-.6543.68042a3.3365,3.3365,0,0,0-2.43848-1.0249,3.34692,3.34692,0,0,0,0,6.688,3.46469,3.46469,0,0,0,2.46582-1.03369l.627.689a4.01078,4.01078,0,0,1-3.06543,1.29,4.28942,4.28942,0,0,1,0-8.57861A3.99735,3.99735,0,0,1,262.71052,391.34771Z"/>
      <path class="cls-14" d="M267.00935,391.10918v4.53223c0,1.40479.74219,2.0498,1.84668,2.0498a2.99794,2.99794,0,0,0,1.85547-.63623l.47656.751a3.7283,3.7283,0,0,1-2.41211.83057c-1.73145,0-2.77344-.96313-2.77344-2.97729v-4.55h-1.9082v-.9187h1.9082v-2.7124h1.00684v2.7124h3.834v.9187Z"/>
      <path class="cls-14" d="M273.43806,398.504V386.13531h1.07813V398.504Z"/>
      <path class="cls-14" d="M289.41755,392.31963c0,3.79-2.57031,6.18433-6.6875,6.18433h-4.51465V386.13531h4.51465C286.84724,386.13531,289.41755,388.52935,289.41755,392.31963Zm-10.124,5.15942h3.43652c3.5957,0,5.55664-2.02319,5.55664-5.15942,0-3.14526-1.96094-5.15967-5.55664-5.15967h-3.43652Z"/>
    </g>
    <g>
      <path class="cls-12" d="M450.90391,640.67354a4.64292,4.64292,0,0,1-5-4.94727v-7.55371H446.982v7.47412a3.923,3.923,0,1,0,7.84473,0v-7.47412h1.08691v7.55371A4.64988,4.64988,0,0,1,450.90391,640.67354Z"/>
      <path class="cls-12" d="M466.651,635.44355v5.09766h-1.00684v-4.78857a2.46226,2.46226,0,0,0-2.668-2.70312,2.6898,2.6898,0,0,0-2.7832,2.75635v4.73535h-1.00684v-8.31348h.998v1.45752a3.3568,3.3568,0,0,1,2.96875-1.59033A3.2177,3.2177,0,0,1,466.651,635.44355Z"/>
      <path class="cls-12" d="M470.99376,629.24141a.699.699,0,0,1-.72461.71582.69176.69176,0,0,1-.71582-.71582.70653.70653,0,0,1,.71582-.7334A.7137.7137,0,0,1,470.99376,629.24141Zm-1.22754,11.2998v-8.31348h1.00684v8.31348Z"/>
      <path class="cls-12" d="M475.90391,633.14668v7.39453H474.8961v-7.39453h-2.04v-.91895h2.04v-1.43115c0-1.8291.76855-3.10986,2.748-3.10986a4.23456,4.23456,0,0,1,2.24414.61816l-.3623.83936a3.61688,3.61688,0,0,0-1.82031-.51221c-1.29,0-1.80176.79492-1.80176,2.16455v1.43115H479.482v.91895Z"/>
      <path class="cls-12" d="M482.93321,629.24141a.699.699,0,0,1-.72461.71582.69176.69176,0,0,1-.71582-.71582.70653.70653,0,0,1,.71582-.7334A.7137.7137,0,0,1,482.93321,629.24141Zm-1.22754,11.2998v-8.31348h1.00684v8.31348Z"/>
      <path class="cls-12" d="M493.26915,636.33564c0,.15039-.00977.28271-.01855.41553h-6.9707a3.10785,3.10785,0,0,0,3.2168,3.04785,3.84144,3.84144,0,0,0,2.80859-1.18359l.53906.689a4.51193,4.51193,0,0,1-3.41016,1.36914,4.29183,4.29183,0,0,1-.06152-8.57861A3.97039,3.97039,0,0,1,493.26915,636.33564Zm-6.9707-.4502h5.94531a2.9297,2.9297,0,0,0-2.88867-2.89795A3.04794,3.04794,0,0,0,486.29844,635.88545Z"/>
      <path class="cls-12" d="M502.60313,633.82686V627.819h.998v12.72217h-.998v-1.59912a3.72735,3.72735,0,0,1-3.2959,1.73145,4.29157,4.29157,0,0,1,0-8.57861A3.76557,3.76557,0,0,1,502.60313,633.82686Zm-6.42383,2.562a3.2401,3.2401,0,1,0,3.24316-3.34863A3.20807,3.20807,0,0,0,496.1793,636.38887Z"/>
      <path class="cls-12" d="M523.37657,640.54121V629.40059l-4.71777,9.67383h-1.13965l-4.71777-9.62109v11.08789h-1.07812V628.17256h1.625l4.74512,9.63867,4.73535-9.63867h1.625v12.36865Z"/>
      <path class="cls-12" d="M529.13829,629.24141a.699.699,0,0,1-.72461.71582.69176.69176,0,0,1-.71582-.71582.70653.70653,0,0,1,.71582-.7334A.7137.7137,0,0,1,529.13829,629.24141Zm-1.22754,11.2998v-8.31348h1.00684v8.31348Z"/>
      <path class="cls-12" d="M539.58751,635.44355v5.09766h-1.00684v-4.78857a2.46226,2.46226,0,0,0-2.668-2.70312,2.6898,2.6898,0,0,0-2.7832,2.75635v4.73535h-1.00684v-8.31348h.998v1.45752a3.3568,3.3568,0,0,1,2.96875-1.59033A3.2177,3.2177,0,0,1,539.58751,635.44355Z"/>
      <path class="cls-12" d="M543.93028,629.24141a.699.699,0,0,1-.72461.71582.69176.69176,0,0,1-.71582-.71582.70653.70653,0,0,1,.71582-.7334A.7137.7137,0,0,1,543.93028,629.24141Zm-1.22754,11.2998v-8.31348h1.00684v8.31348Z"/>
      <path class="cls-12" d="M554.89317,636.38887a4.32039,4.32039,0,1,1-4.3291-4.29395A4.21691,4.21691,0,0,1,554.89317,636.38887Zm-7.61621,0a3.29151,3.29151,0,1,0,3.28711-3.34863A3.22842,3.22842,0,0,0,547.277,636.38887Z"/>
      <path class="cls-12" d="M568.7838,638.49141a4.70425,4.70425,0,0,1-3.834,2.18213c-2.06738,0-3.41113-1.15723-3.41113-2.99463,0-1.66992,1.24609-2.7832,2.5625-3.74609-1.28125-1.25439-1.88184-2.03223-1.88184-3.22461a2.754,2.754,0,0,1,2.9248-2.66846,2.687,2.687,0,0,1,2.915,2.59766c0,1.43994-1.18359,2.4209-2.42969,3.33936l3.05664,2.98633,2.03223-2.99512.8125.5127-2.1377,3.17139,2.95117,2.88916h-1.458Zm-.69824-.68018-3.30371-3.21582c-1.1582.87451-2.165,1.76709-2.165,3.05664a2.14056,2.14056,0,0,0,2.38574,2.07617C566.37169,639.72822,567.21153,638.96846,568.08555,637.81123Zm-3.13574-4.48828c1.10352-.80371,2.04883-1.60791,2.04883-2.6416a1.71235,1.71235,0,0,0-1.85449-1.69629,1.75285,1.75285,0,0,0-1.84668,1.78467C563.29747,631.60029,563.73887,632.13936,564.94981,633.32295Z"/>
      <path class="cls-12" d="M589.61,630.14277l-.79492.76855a5.12653,5.12653,0,0,0-3.99316-1.83789,5.28418,5.28418,0,0,0-.05371,10.56641,4.51706,4.51706,0,0,0,4.78027-4.61182H585.36v-1.00684h5.35449a1.23868,1.23868,0,0,1,.01758.15918v.13232c0,3.64014-2.29687,6.36084-5.96387,6.36084a6.32136,6.32136,0,0,1,.05371-12.64258A6.23955,6.23955,0,0,1,589.61,630.14277Z"/>
      <path class="cls-12" d="M601.45958,636.38887a4.32039,4.32039,0,1,1-4.3291-4.29395A4.21691,4.21691,0,0,1,601.45958,636.38887Zm-7.61621,0a3.29151,3.29151,0,1,0,3.28711-3.34863A3.22842,3.22842,0,0,0,593.84337,636.38887Z"/>
      <path class="cls-12" d="M611.98692,636.38887a4.32039,4.32039,0,1,1-4.3291-4.29395A4.21691,4.21691,0,0,1,611.98692,636.38887Zm-7.61621,0a3.29151,3.29151,0,1,0,3.28711-3.34863A3.22842,3.22842,0,0,0,604.37071,636.38887Z"/>
      <path class="cls-12" d="M621.24083,633.85322v-1.62549h1.00684v7.748c0,2.75635-1.917,4.20557-4.36426,4.20557a5.30247,5.30247,0,0,1-3.498-1.20166l.51172-.7334a4.742,4.742,0,0,0,2.98633,1.01611,3.071,3.071,0,0,0,3.35742-3.24268v-1.18359a3.62956,3.62956,0,0,1-3.24219,1.749,4.24684,4.24684,0,0,1,0-8.49023A3.63659,3.63659,0,0,1,621.24083,633.85322Zm-6.34375,2.48242a3.213,3.213,0,1,0,3.207-3.29541A3.16473,3.16473,0,0,0,614.89708,636.33564Z"/>
      <path class="cls-12" d="M625.45176,640.54121V627.819h1.00684v12.72217Z"/>
      <path class="cls-12" d="M637.01426,636.33564c0,.15039-.00977.28271-.01855.41553H630.025a3.10785,3.10785,0,0,0,3.2168,3.04785,3.84144,3.84144,0,0,0,2.80859-1.18359l.53906.689a4.51193,4.51193,0,0,1-3.41016,1.36914,4.29183,4.29183,0,0,1-.06152-8.57861A3.97039,3.97039,0,0,1,637.01426,636.33564Zm-6.9707-.4502h5.94531a2.9297,2.9297,0,0,0-2.88867-2.89795A3.04794,3.04794,0,0,0,630.04356,635.88545Z"/>
      <path class="cls-12" d="M655.0836,630.57539l-.90137.60107a4.82564,4.82564,0,0,0-4.09863-2.103,5.28368,5.28368,0,0,0,0,10.56641,4.77886,4.77886,0,0,0,4.08984-2.10254l.88379.645a5.8704,5.8704,0,0,1-4.97363,2.5,6.32569,6.32569,0,1,1,0-12.65137A5.84209,5.84209,0,0,1,655.0836,630.57539Z"/>
      <path class="cls-12" d="M657.7379,640.54121V627.819h1.00684v12.72217Z"/>
      <path class="cls-12" d="M669.92833,636.38887a4.32039,4.32039,0,1,1-4.3291-4.29395A4.21691,4.21691,0,0,1,669.92833,636.38887Zm-7.61621,0a3.29151,3.29151,0,1,0,3.28711-3.34863A3.22842,3.22842,0,0,0,662.31212,636.38887Z"/>
      <path class="cls-12" d="M676.108,640.67354a3.429,3.429,0,0,1-3.72852-3.56885v-4.877h1.00684v4.78857a2.72121,2.72121,0,0,0,5.44238,0v-4.78857h1.00781v4.877A3.43338,3.43338,0,0,1,676.108,640.67354Z"/>
      <path class="cls-12" d="M689.73594,633.82686V627.819h.998v12.72217h-.998v-1.59912a3.72735,3.72735,0,0,1-3.2959,1.73145,4.29157,4.29157,0,0,1,0-8.57861A3.76557,3.76557,0,0,1,689.73594,633.82686Zm-6.42383,2.562a3.2401,3.2401,0,1,0,3.24316-3.34863A3.20807,3.20807,0,0,0,683.31212,636.38887Z"/>
      <path class="cls-12" d="M703.03477,629.06465c-1.97949,0-3.44531.91895-3.44531,2.46484,0,1.228.91016,1.979,3.02148,2.21777l1.35156.1499c2.2002.25635,3.79883,1.10449,3.79883,3.17188,0,2.40332-2.2002,3.60449-4.85937,3.60449a8.06328,8.06328,0,0,1-4.78809-1.5459l.5918-.85693a7.18988,7.18988,0,0,0,4.1875,1.37842c2.09375,0,3.74609-.82178,3.74609-2.4917,0-1.34277-1.07812-1.98779-3.13672-2.22656l-1.4043-.15869c-2.26172-.25635-3.63086-1.26367-3.63086-3.17187,0-2.28809,2.03223-3.56055,4.57617-3.56055a7.4766,7.4766,0,0,1,4.417,1.36084l-.55566.87451A6.59254,6.59254,0,0,0,703.03477,629.06465Z"/>
      <path class="cls-12" d="M712.13829,633.14668v4.53223c0,1.40479.74219,2.04932,1.84668,2.04932a2.99907,2.99907,0,0,0,1.85547-.63574l.47656.751a3.7294,3.7294,0,0,1-2.41211.83008c-1.73145,0-2.77344-.96289-2.77344-2.97705v-4.5498h-1.9082v-.91895h1.9082v-2.7124h1.00684v2.7124h3.834v.91895Z"/>
      <path class="cls-12" d="M726.26231,636.38887a4.32039,4.32039,0,1,1-4.3291-4.29395A4.21691,4.21691,0,0,1,726.26231,636.38887Zm-7.61621,0a3.29151,3.29151,0,1,0,3.28711-3.34863A3.22842,3.22842,0,0,0,718.6461,636.38887Z"/>
      <path class="cls-12" d="M733.91856,632.40449l-.25684.98047a3.29222,3.29222,0,0,0-1.47559-.33545c-1.38672,0-2.376,1.13086-2.376,2.80029v4.69141h-.998v-8.31348h.98926v1.41357a2.85761,2.85761,0,0,1,2.56152-1.55518A3.44324,3.44324,0,0,1,733.91856,632.40449Z"/>
      <path class="cls-12" d="M742.43223,640.54121v-1.59912a3.72735,3.72735,0,0,1-3.2959,1.73145,4.29157,4.29157,0,0,1,0-8.57861,3.76557,3.76557,0,0,1,3.2959,1.73193v-1.59912h.998v8.31348Zm-6.42383-4.15234a3.2401,3.2401,0,1,0,3.24316-3.34863A3.20807,3.20807,0,0,0,736.00841,636.38887Z"/>
      <path class="cls-12" d="M753.33848,633.85322v-1.62549h1.00684v7.748c0,2.75635-1.917,4.20557-4.36426,4.20557a5.30247,5.30247,0,0,1-3.498-1.20166l.51172-.7334a4.742,4.742,0,0,0,2.98633,1.01611,3.071,3.071,0,0,0,3.35742-3.24268v-1.18359a3.62956,3.62956,0,0,1-3.24219,1.749,4.24684,4.24684,0,0,1,0-8.49023A3.63659,3.63659,0,0,1,753.33848,633.85322Zm-6.34375,2.48242a3.213,3.213,0,1,0,3.207-3.29541A3.16473,3.16473,0,0,0,746.99473,636.33564Z"/>
      <path class="cls-12" d="M764.899,636.33564c0,.15039-.00977.28271-.01855.41553h-6.9707a3.10785,3.10785,0,0,0,3.2168,3.04785,3.84144,3.84144,0,0,0,2.80859-1.18359l.53906.689a4.51193,4.51193,0,0,1-3.41016,1.36914,4.29183,4.29183,0,0,1-.06152-8.57861A3.97039,3.97039,0,0,1,764.899,636.33564Zm-6.9707-.4502h5.94531a2.9297,2.9297,0,0,0-2.88867-2.89795A3.04794,3.04794,0,0,0,757.92833,635.88545Z"/>
    </g>
    <rect class="cls-8" x="89.56394" y="494.31962" width="607.02211" height="80"/>
  </g>
</svg>
