<svg id="Layer_1" data-name="Layer 1" xmlns="http://www.w3.org/2000/svg" xmlns:xlink="http://www.w3.org/1999/xlink" viewBox="0 0 1462.85 658.84"><defs><style>.cls-1,.cls-16,.cls-19,.cls-3,.cls-42{fill:#fff;}.cls-10,.cls-15,.cls-17,.cls-18,.cls-2,.cls-20,.cls-21,.cls-22,.cls-23,.cls-24,.cls-25,.cls-26,.cls-27,.cls-28,.cls-29,.cls-30,.cls-31,.cls-32,.cls-33,.cls-34,.cls-35,.cls-36,.cls-37,.cls-38,.cls-39,.cls-4,.cls-40,.cls-41,.cls-5,.cls-6,.cls-7,.cls-8,.cls-9{fill:none;}.cls-2{stroke:#cecece;stroke-width:0.5px;}.cls-10,.cls-15,.cls-16,.cls-17,.cls-18,.cls-19,.cls-2,.cls-20,.cls-21,.cls-22,.cls-23,.cls-24,.cls-25,.cls-26,.cls-27,.cls-28,.cls-29,.cls-3,.cls-30,.cls-31,.cls-32,.cls-33,.cls-34,.cls-35,.cls-36,.cls-37,.cls-38,.cls-39,.cls-4,.cls-40,.cls-41,.cls-42,.cls-5,.cls-6,.cls-7,.cls-8,.cls-9{stroke-miterlimit:10;}.cls-3{stroke:#939393;}.cls-10,.cls-3,.cls-8,.cls-9{stroke-width:1.2px;}.cls-4,.cls-5,.cls-6{stroke:#dbdbdb;stroke-width:1.44px;}.cls-10,.cls-5{stroke-dasharray:7.04 4.69;}.cls-6{stroke-dasharray:6.57 4.38;}.cls-15,.cls-16,.cls-17,.cls-7{stroke:#b1b1b1;}.cls-7{stroke-width:1.1px;}.cls-10,.cls-8,.cls-9{stroke:#8e8e8e;}.cls-9{stroke-dasharray:6.61 4.4;}.cls-11{fill:gray;}.cls-12{fill:#4d4d4d;}.cls-13{fill:#666;}.cls-14{fill:#b1b1b1;}.cls-15{stroke-width:1.22px;}.cls-16,.cls-17,.cls-18,.cls-42{stroke-width:1.66px;}.cls-18{stroke:url(#linear-gradient);}.cls-19,.cls-20,.cls-21,.cls-22,.cls-23,.cls-24,.cls-25,.cls-26,.cls-27,.cls-28,.cls-29,.cls-30,.cls-31,.cls-32,.cls-33,.cls-34,.cls-35,.cls-36,.cls-37,.cls-38,.cls-39,.cls-40,.cls-41{stroke-width:0.75px;}.cls-19{stroke-dasharray:6.61 2.5;stroke:url(#linear-gradient-2);}.cls-20{stroke:url(#linear-gradient-3);}.cls-21,.cls-25,.cls-29,.cls-33,.cls-37,.cls-40{stroke-dasharray:6.54 2.48;}.cls-21{stroke:url(#linear-gradient-4);}.cls-22{stroke:url(#linear-gradient-5);}.cls-23,.cls-27,.cls-31,.cls-35,.cls-38,.cls-41{stroke-dasharray:6.81 2.58;}.cls-23{stroke:url(#linear-gradient-6);}.cls-24{stroke:url(#linear-gradient-7);}.cls-25{stroke:url(#linear-gradient-8);}.cls-26{stroke:url(#linear-gradient-9);}.cls-27{stroke:url(#linear-gradient-10);}.cls-28{stroke:url(#linear-gradient-11);}.cls-29{stroke:url(#linear-gradient-12);}.cls-30{stroke:url(#linear-gradient-13);}.cls-31{stroke:url(#linear-gradient-14);}.cls-32{stroke:url(#linear-gradient-15);}.cls-33{stroke:url(#linear-gradient-16);}.cls-34{stroke:url(#linear-gradient-17);}.cls-35{stroke:url(#linear-gradient-18);}.cls-36{stroke:url(#linear-gradient-19);}.cls-37{stroke:url(#linear-gradient-20);}.cls-38{stroke:url(#linear-gradient-22);}.cls-39{stroke:url(#linear-gradient-23);}.cls-40{stroke:url(#linear-gradient-24);}.cls-41{stroke:url(#linear-gradient-26);}.cls-42{stroke:url(#linear-gradient-27);}</style><linearGradient id="linear-gradient" x1="829.35" y1="320.24" x2="1079.64" y2="320.24" gradientTransform="matrix(1, 0, 0, -1, -1, 661)" gradientUnits="userSpaceOnUse"><stop offset="0" stop-color="#ffbd9c"/><stop offset="1" stop-color="#efa78e"/></linearGradient><linearGradient id="linear-gradient-2" x1="954.62" y1="340.76" x2="955.37" y2="340.76" gradientTransform="matrix(1, 0, 0, 1, 0, 0)" xlink:href="#linear-gradient"/><linearGradient id="linear-gradient-3" x1="1285.77" y1="292.83" x2="1430.87" y2="292.83" gradientTransform="matrix(1, 0, 0, 1, 0, 0)" xlink:href="#linear-gradient"/><linearGradient id="linear-gradient-4" x1="1285.77" y1="291.36" x2="1430.87" y2="291.36" gradientTransform="matrix(1, 0, 0, 1, 0, 0)" xlink:href="#linear-gradient"/><linearGradient id="linear-gradient-5" x1="1285.77" y1="292.83" x2="1430.87" y2="292.83" gradientTransform="matrix(1, 0, 0, 1, 0, 0)" xlink:href="#linear-gradient"/><linearGradient id="linear-gradient-6" x1="1285.77" y1="366.99" x2="1430.87" y2="366.99" gradientTransform="matrix(1, 0, 0, 1, 0, 0)" xlink:href="#linear-gradient"/><linearGradient id="linear-gradient-7" x1="1285.77" y1="439.87" x2="1430.87" y2="439.87" gradientTransform="matrix(1, 0, 0, 1, 0, 0)" xlink:href="#linear-gradient"/><linearGradient id="linear-gradient-8" x1="1285.77" y1="441.34" x2="1430.87" y2="441.34" gradientTransform="matrix(1, 0, 0, 1, 0, 0)" xlink:href="#linear-gradient"/><linearGradient id="linear-gradient-9" x1="1285.77" y1="439.87" x2="1430.87" y2="439.87" gradientTransform="matrix(1, 0, 0, 1, 0, 0)" xlink:href="#linear-gradient"/><linearGradient id="linear-gradient-10" x1="1285.77" y1="365.71" x2="1430.87" y2="365.71" gradientTransform="matrix(1, 0, 0, 1, 0, 0)" xlink:href="#linear-gradient"/><linearGradient id="linear-gradient-11" x1="1278.27" y1="285" x2="1423.37" y2="285" gradientTransform="matrix(1, 0, 0, 1, 0, 0)" xlink:href="#linear-gradient"/><linearGradient id="linear-gradient-12" x1="1278.27" y1="283.54" x2="1423.37" y2="283.54" gradientTransform="matrix(1, 0, 0, 1, 0, 0)" xlink:href="#linear-gradient"/><linearGradient id="linear-gradient-13" x1="1278.27" y1="285" x2="1423.37" y2="285" gradientTransform="matrix(1, 0, 0, 1, 0, 0)" xlink:href="#linear-gradient"/><linearGradient id="linear-gradient-14" x1="1278.27" y1="359.17" x2="1423.37" y2="359.17" gradientTransform="matrix(1, 0, 0, 1, 0, 0)" xlink:href="#linear-gradient"/><linearGradient id="linear-gradient-15" x1="1278.27" y1="432.05" x2="1423.37" y2="432.05" gradientTransform="matrix(1, 0, 0, 1, 0, 0)" xlink:href="#linear-gradient"/><linearGradient id="linear-gradient-16" x1="1278.27" y1="433.51" x2="1423.37" y2="433.51" gradientTransform="matrix(1, 0, 0, 1, 0, 0)" xlink:href="#linear-gradient"/><linearGradient id="linear-gradient-17" x1="1278.27" y1="432.05" x2="1423.37" y2="432.05" gradientTransform="matrix(1, 0, 0, 1, 0, 0)" xlink:href="#linear-gradient"/><linearGradient id="linear-gradient-18" x1="1278.27" y1="357.88" x2="1423.37" y2="357.88" gradientTransform="matrix(1, 0, 0, 1, 0, 0)" xlink:href="#linear-gradient"/><linearGradient id="linear-gradient-19" x1="1269.15" y1="276.91" x2="1414.25" y2="276.91" gradientTransform="matrix(1, 0, 0, 1, 0, 0)" xlink:href="#linear-gradient"/><linearGradient id="linear-gradient-20" x1="1269.15" y1="275.45" x2="1414.25" y2="275.45" gradientTransform="matrix(1, 0, 0, 1, 0, 0)" xlink:href="#linear-gradient"/><linearGradient id="linear-gradient-22" x1="1269.15" y1="351.08" x2="1414.25" y2="351.08" gradientTransform="matrix(1, 0, 0, 1, 0, 0)" xlink:href="#linear-gradient"/><linearGradient id="linear-gradient-23" x1="1269.15" y1="423.95" x2="1414.25" y2="423.95" gradientTransform="matrix(1, 0, 0, 1, 0, 0)" xlink:href="#linear-gradient"/><linearGradient id="linear-gradient-24" x1="1269.15" y1="425.42" x2="1414.25" y2="425.42" gradientTransform="matrix(1, 0, 0, 1, 0, 0)" xlink:href="#linear-gradient"/><linearGradient id="linear-gradient-26" x1="1269.15" y1="349.79" x2="1414.25" y2="349.79" gradientTransform="matrix(1, 0, 0, 1, 0, 0)" xlink:href="#linear-gradient"/><linearGradient id="linear-gradient-27" x1="1261.22" y1="319.83" x2="1407.22" y2="319.83" xlink:href="#linear-gradient"/></defs><title>cf</title><rect class="cls-1" x="0.25" y="0.25" width="1462.35" height="658.34"/><rect class="cls-2" x="0.25" y="0.25" width="1462.35" height="658.34"/><rect class="cls-3" x="34.62" y="282.47" width="147.08" height="112.45"/><rect class="cls-3" x="34.62" y="289.17" width="147.08" height="99.06"/><circle class="cls-3" cx="47.66" cy="285.82" r="2.99"/><rect class="cls-3" x="97.86" y="388.3" width="20.61" height="6.62" rx="3.31" ry="3.31"/><polyline class="cls-4" points="342.38 573.91 342.38 577.2 339.09 577.2"/><line class="cls-5" x1="334.42" y1="577.2" x2="266.79" y2="577.2"/><polyline class="cls-4" points="264.46 577.2 261.17 577.2 261.17 573.91"/><line class="cls-6" x1="261.17" y1="569.55" x2="261.17" y2="60.11"/><polyline class="cls-4" points="261.17 57.93 261.17 54.64 264.46 54.64"/><line class="cls-5" x1="269.13" y1="54.64" x2="336.75" y2="54.64"/><polyline class="cls-4" points="339.09 54.64 342.38 54.64 342.38 57.93"/><line class="cls-6" x1="342.38" y1="62.29" x2="342.38" y2="571.73"/><rect class="cls-7" x="209.92" y="103.36" width="590.93" height="425.11"/><polyline class="cls-8" points="778.22 208.35 778.22 211.64 774.93 211.64"/><line class="cls-9" x1="770.55" y1="211.64" x2="510.15" y2="211.64"/><polyline class="cls-8" points="507.96 211.64 504.67 211.64 504.67 208.35"/><line class="cls-10" x1="504.67" y1="203.68" x2="504.67" y2="136.06"/><polyline class="cls-8" points="504.67 133.72 504.67 130.43 507.96 130.43"/><line class="cls-9" x1="512.34" y1="130.43" x2="772.74" y2="130.43"/><polyline class="cls-8" points="774.93 130.43 778.22 130.43 778.22 133.72"/><line class="cls-10" x1="778.22" y1="138.39" x2="778.22" y2="206.02"/><path class="cls-11" d="M362.58,540a3.3,3.3,0,0,1-2.69,3.25,2.53,2.53,0,0,1,1.78,3.1v0c-.54,2.45-2.3,3.08-5.14,3.08h-4.84l2.62-12.29h4.49C361,537.17,362.58,538.11,362.58,540ZM353,548.45h3.7c2.14,0,3.51-.5,3.86-2.13.38-1.8-.81-2.62-2.84-2.62H354Zm1.23-5.75h3.52c2.73,0,3.74-1.24,3.74-2.62s-1.28-1.9-2.87-1.9h-3.43Z" transform="translate(-1 -1)"/><path class="cls-11" d="M371.43,543.12l.41-1.92h1l-1.76,8.26h-1l.27-1.26a4.13,4.13,0,0,1-3.15,1.39,3.49,3.49,0,0,1-3.58-3.41q0-.12,0-.24a4.82,4.82,0,0,1,4.71-4.88A3.06,3.06,0,0,1,371.43,543.12Zm-.42,2.28a2.73,2.73,0,0,0-2.69-3.4,3.76,3.76,0,0,0-3.66,3.85,2.63,2.63,0,0,0,2.46,2.8h.26A3.73,3.73,0,0,0,371,545.41Z" transform="translate(-1 -1)"/><path class="cls-11" d="M378.12,541.95c-1.24,0-2.2.5-2.29,1.37s.42,1.3,1.62,1.48l.83.12c1.76.27,2.54,1.11,2.4,2.33-.18,1.44-1.54,2.34-3.47,2.34a6.1,6.1,0,0,1-3.56-1.15l.56-.74a4.91,4.91,0,0,0,3,1c1.35,0,2.34-.5,2.46-1.46.09-.78-.46-1.26-1.64-1.45l-.85-.13c-1.84-.28-2.51-1.17-2.37-2.33.17-1.47,1.53-2.29,3.34-2.29a5.79,5.79,0,0,1,3.33.94l-.53.76A5.14,5.14,0,0,0,378.12,541.95Z" transform="translate(-1 -1)"/><path class="cls-11" d="M386.23,549.6a3.42,3.42,0,0,1-3.68-3.56,4.83,4.83,0,0,1,4.67-5,3.13,3.13,0,0,1,3.36,3.26,4.5,4.5,0,0,1-.22,1.37h-6.8a1,1,0,0,0,0,.16V546a2.58,2.58,0,0,0,2.43,2.72h.35a3.83,3.83,0,0,0,2.77-1.1l.5.69A4.64,4.64,0,0,1,386.23,549.6Zm-2.51-4.77h5.84a2.89,2.89,0,0,0,0-.48,2.26,2.26,0,0,0-2.11-2.4h-.3a3.61,3.61,0,0,0-3.46,2.88Z" transform="translate(-1 -1)"/><path class="cls-11" d="M399.83,543.12l1.34-6.3h1l-2.69,12.64h-1l.26-1.27a4.09,4.09,0,0,1-3.15,1.4,3.49,3.49,0,0,1-3.58-3.41q0-.12,0-.24a4.82,4.82,0,0,1,4.71-4.88A3.08,3.08,0,0,1,399.83,543.12Zm-.42,2.28a2.73,2.73,0,0,0-2.69-3.4,3.76,3.76,0,0,0-3.66,3.85,2.63,2.63,0,0,0,2.46,2.8h.26A3.73,3.73,0,0,0,399.41,545.41Z" transform="translate(-1 -1)"/><path class="cls-11" d="M415.92,544.93a4.64,4.64,0,0,1-4.59,4.68h-.05a3.75,3.75,0,0,1-3.92-3.57q0-.15,0-.29a4.64,4.64,0,0,1,4.6-4.67h0a3.75,3.75,0,0,1,3.92,3.57Q415.93,544.78,415.92,544.93Zm-7.54.76a2.86,2.86,0,0,0,2.75,3h.21a3.61,3.61,0,0,0,3.56-3.66v0a2.87,2.87,0,0,0-2.77-3h-.22a3.6,3.6,0,0,0-3.54,3.66v0Z" transform="translate(-1 -1)"/><path class="cls-11" d="M425.84,543.92a4.59,4.59,0,0,1-.11.93l-1,4.61h-1l1-4.65a3.42,3.42,0,0,0,.09-.76,2,2,0,0,0-2.2-2,3.29,3.29,0,0,0-3.24,2.78l-1,4.66h-1l1.76-8.26h1l-.25,1.17a3.76,3.76,0,0,1,2.9-1.3,2.77,2.77,0,0,1,3.06,2.85Z" transform="translate(-1 -1)"/><path class="cls-11" d="M435.55,536.82h.93L435,541.06h-1.16Zm2.92,0h.93L438,541.06H436.8Z" transform="translate(-1 -1)"/><path class="cls-11" d="M440.77,549.46h-1.09l2.62-12.29h4.1c2.42,0,3.82,1.21,3.82,3.13,0,2.31-1.63,4.16-5.06,4.16h-3.33Zm1.28-6h3.15c2.74,0,3.9-1.37,3.9-3,0-1.43-1-2.21-2.8-2.21h-3.13Z" transform="translate(-1 -1)"/><path class="cls-11" d="M450.74,549.46l1.76-8.26h1l-1.76,8.26Zm3.6-11.23a.69.69,0,0,1-.68.71h0a.69.69,0,0,1-.71-.66s0,0,0,0a.7.7,0,0,1,.67-.73h0a.71.71,0,0,1,.72.7S454.34,538.22,454.34,538.24Z" transform="translate(-1 -1)"/><path class="cls-11" d="M457.21,549.48l-1.9-8.28h1l1.61,7.31,4.64-7.31h1.09l-5.31,8.28Z" transform="translate(-1 -1)"/><path class="cls-11" d="M472.73,544.93a4.64,4.64,0,0,1-4.59,4.68h-.05a3.75,3.75,0,0,1-3.92-3.57q0-.15,0-.29a4.64,4.64,0,0,1,4.6-4.67h0a3.75,3.75,0,0,1,3.92,3.57Q472.73,544.78,472.73,544.93Zm-7.54.76a2.86,2.86,0,0,0,2.75,3h.21a3.61,3.61,0,0,0,3.56-3.66v0a2.87,2.87,0,0,0-2.77-3h-.22a3.6,3.6,0,0,0-3.54,3.66v0Z" transform="translate(-1 -1)"/><path class="cls-11" d="M477.16,542.12l-.91,4.32c-.33,1.54.4,2.22,1.43,2.22a3.11,3.11,0,0,0,1.9-.66l.42.77a3.91,3.91,0,0,1-2.43.82c-1.71,0-2.77-1.08-2.33-3.19l.91-4.29h-1.88l.19-.91h1.88l.58-2.7h1l-.57,2.7H481l-.19.91Z" transform="translate(-1 -1)"/><path class="cls-11" d="M489.36,543.12l.41-1.92h1L489,549.46h-1l.27-1.26a4.13,4.13,0,0,1-3.15,1.39,3.49,3.49,0,0,1-3.58-3.41q0-.12,0-.24a4.82,4.82,0,0,1,4.71-4.88A3.06,3.06,0,0,1,489.36,543.12Zm-.42,2.28a2.73,2.73,0,0,0-2.69-3.4,3.76,3.76,0,0,0-3.66,3.85,2.63,2.63,0,0,0,2.46,2.8h.26a3.73,3.73,0,0,0,3.63-3.25Z" transform="translate(-1 -1)"/><path class="cls-11" d="M492.06,549.46l2.69-12.64h1l-2.69,12.64Z" transform="translate(-1 -1)"/><path class="cls-11" d="M507.34,549.6a5.55,5.55,0,0,1-5.77-5.33q0-.2,0-.4A6.65,6.65,0,0,1,508,537h.3a5.48,5.48,0,0,1,4.88,2.55l-.82.65a4.6,4.6,0,0,0-4.12-2.17,5.55,5.55,0,0,0-5.58,5.53q0,.09,0,.18a4.58,4.58,0,0,0,4.38,4.78h.34a4.93,4.93,0,0,0,3.88-1.84l.71.68A6,6,0,0,1,507.34,549.6Z" transform="translate(-1 -1)"/><path class="cls-11" d="M519,541.06a3.26,3.26,0,0,1,1.54.38l-.45.9a2.5,2.5,0,0,0-1.26-.32,3.14,3.14,0,0,0-2.94,2.81l-1,4.64h-1l1.76-8.26h1l-.23,1.08A3.32,3.32,0,0,1,519,541.06Z" transform="translate(-1 -1)"/><path class="cls-11" d="M524.48,549.6A3.42,3.42,0,0,1,520.8,546a4.83,4.83,0,0,1,4.67-5,3.13,3.13,0,0,1,3.36,3.26,4.5,4.5,0,0,1-.22,1.37h-6.8a1,1,0,0,0,0,.16V546a2.58,2.58,0,0,0,2.43,2.72h.35a3.83,3.83,0,0,0,2.77-1.1l.5.69A4.64,4.64,0,0,1,524.48,549.6ZM522,544.84h5.84a2.89,2.89,0,0,0,0-.48,2.26,2.26,0,0,0-2.11-2.4h-.3A3.61,3.61,0,0,0,522,544.84Z" transform="translate(-1 -1)"/><path class="cls-11" d="M538.07,543.12l.41-1.92h1l-1.76,8.26h-1l.27-1.26a4.13,4.13,0,0,1-3.15,1.39,3.49,3.49,0,0,1-3.58-3.41q0-.12,0-.24a4.82,4.82,0,0,1,4.71-4.88A3.06,3.06,0,0,1,538.07,543.12Zm-.42,2.28A2.73,2.73,0,0,0,535,542a3.76,3.76,0,0,0-3.66,3.85,2.63,2.63,0,0,0,2.46,2.8H534A3.73,3.73,0,0,0,537.65,545.41Z" transform="translate(-1 -1)"/><path class="cls-11" d="M544.15,542.12l-.91,4.32c-.33,1.54.4,2.22,1.43,2.22a3.11,3.11,0,0,0,1.9-.66l.42.77a3.91,3.91,0,0,1-2.43.82c-1.71,0-2.77-1.08-2.33-3.19l.91-4.29h-1.88l.19-.91h1.88l.58-2.7h1l-.57,2.7H548l-.19.91Z" transform="translate(-1 -1)"/><path class="cls-11" d="M548.56,549.46l1.76-8.26h1l-1.76,8.26Zm3.6-11.23a.69.69,0,0,1-.68.71h0a.69.69,0,0,1-.71-.66s0,0,0,0a.7.7,0,0,1,.67-.73h0a.71.71,0,0,1,.72.7S552.16,538.22,552.16,538.24Z" transform="translate(-1 -1)"/><path class="cls-11" d="M561.08,543.92a4.58,4.58,0,0,1-.11.93l-1,4.61h-1l1-4.65a3.42,3.42,0,0,0,.09-.76,2,2,0,0,0-2.2-2,3.29,3.29,0,0,0-3.24,2.78l-1,4.66h-1l1.76-8.26h1l-.25,1.17a3.76,3.76,0,0,1,2.9-1.3,2.77,2.77,0,0,1,3.06,2.85Z" transform="translate(-1 -1)"/><path class="cls-11" d="M566.11,553a5.07,5.07,0,0,1-3.56-1.29l.58-.75a4.28,4.28,0,0,0,3,1.13,3.63,3.63,0,0,0,3.52-3.24l.15-.75a3.94,3.94,0,0,1-3,1.33,3.49,3.49,0,0,1-3.68-3.29q0-.15,0-.29a4.75,4.75,0,0,1,4.67-4.83h0a3,3,0,0,1,3.1,2.06l.41-1.93h1L570.63,549C570.07,551.63,568.26,553,566.11,553Zm4.34-7.88a2.68,2.68,0,0,0-2.69-3.15,3.66,3.66,0,0,0-3.64,3.69s0,.07,0,.1a2.62,2.62,0,0,0,2.49,2.75h.21A3.64,3.64,0,0,0,570.44,545.16Z" transform="translate(-1 -1)"/><path class="cls-11" d="M586.15,543.12l.41-1.92h1l-1.76,8.26h-1l.27-1.26a4.13,4.13,0,0,1-3.15,1.39,3.49,3.49,0,0,1-3.58-3.41q0-.12,0-.24a4.82,4.82,0,0,1,4.71-4.88A3.06,3.06,0,0,1,586.15,543.12Zm-.42,2.28A2.73,2.73,0,0,0,583,542a3.76,3.76,0,0,0-3.66,3.85,2.63,2.63,0,0,0,2.46,2.8h.26a3.73,3.73,0,0,0,3.63-3.25Z" transform="translate(-1 -1)"/><path class="cls-11" d="M597.3,543.92a4.58,4.58,0,0,1-.11.93l-1,4.61h-1l1-4.65a3.42,3.42,0,0,0,.09-.76,2,2,0,0,0-2.2-2,3.29,3.29,0,0,0-3.24,2.78l-1,4.66h-1l1.76-8.26h1l-.25,1.17a3.76,3.76,0,0,1,2.9-1.3,2.77,2.77,0,0,1,3.06,2.85Z" transform="translate(-1 -1)"/><path class="cls-11" d="M607.08,543.12l1.34-6.3h1l-2.69,12.64h-1l.26-1.27a4.09,4.09,0,0,1-3.15,1.4,3.49,3.49,0,0,1-3.58-3.41q0-.12,0-.24a4.82,4.82,0,0,1,4.71-4.88A3.08,3.08,0,0,1,607.08,543.12Zm-.42,2.28A2.73,2.73,0,0,0,604,542a3.76,3.76,0,0,0-3.66,3.85,2.63,2.63,0,0,0,2.46,2.8H603A3.73,3.73,0,0,0,606.66,545.41Z" transform="translate(-1 -1)"/><path class="cls-11" d="M625.56,540a3.3,3.3,0,0,1-2.69,3.25,2.53,2.53,0,0,1,1.78,3.1v0c-.54,2.45-2.3,3.08-5.14,3.08h-4.84l2.62-12.29h4.5C624,537.17,625.56,538.11,625.56,540ZM616,548.45h3.7c2.14,0,3.51-.5,3.86-2.13.38-1.8-.81-2.62-2.84-2.62H617Zm1.23-5.75h3.52c2.73,0,3.74-1.24,3.74-2.62s-1.28-1.9-2.87-1.9h-3.43Z" transform="translate(-1 -1)"/><path class="cls-11" d="M626.49,549.46l1.76-8.26h1l-1.76,8.26Zm3.6-11.23a.69.69,0,0,1-.68.71h0a.69.69,0,0,1-.71-.66s0,0,0,0a.7.7,0,0,1,.67-.73h0a.71.71,0,0,1,.72.7S630.09,538.22,630.09,538.24Z" transform="translate(-1 -1)"/><path class="cls-11" d="M639,543.92a4.58,4.58,0,0,1-.11.93l-1,4.61h-1l1-4.65A3.42,3.42,0,0,0,638,544a2,2,0,0,0-2.2-2,3.29,3.29,0,0,0-3.24,2.78l-1,4.66h-1l1.76-8.26h1l-.25,1.17a3.76,3.76,0,0,1,2.9-1.3,2.77,2.77,0,0,1,3.06,2.85Z" transform="translate(-1 -1)"/><path class="cls-11" d="M648.79,543.12l1.34-6.3h1l-2.69,12.64h-1l.26-1.27a4.09,4.09,0,0,1-3.15,1.4,3.49,3.49,0,0,1-3.58-3.41q0-.12,0-.24a4.82,4.82,0,0,1,4.71-4.88A3.08,3.08,0,0,1,648.79,543.12Zm-.42,2.28a2.73,2.73,0,0,0-2.69-3.4,3.76,3.76,0,0,0-3.66,3.85,2.63,2.63,0,0,0,2.46,2.8h.26A3.73,3.73,0,0,0,648.37,545.41Z" transform="translate(-1 -1)"/><path class="cls-11" d="M651.5,549.46l1.76-8.26h1l-1.76,8.26Zm3.6-11.23a.69.69,0,0,1-.68.71h0a.69.69,0,0,1-.71-.66s0,0,0,0a.7.7,0,0,1,.67-.73h0a.71.71,0,0,1,.72.7S655.1,538.22,655.1,538.24Z" transform="translate(-1 -1)"/><path class="cls-11" d="M664,543.92a4.58,4.58,0,0,1-.11.93l-1,4.61h-1l1-4.65A3.42,3.42,0,0,0,663,544a2,2,0,0,0-2.2-2,3.29,3.29,0,0,0-3.24,2.78l-1,4.66h-1l1.76-8.26h1l-.25,1.17a3.76,3.76,0,0,1,2.9-1.3,2.77,2.77,0,0,1,3.06,2.85Z" transform="translate(-1 -1)"/><path class="cls-11" d="M669,553a5.07,5.07,0,0,1-3.56-1.29l.58-.75a4.28,4.28,0,0,0,3,1.13,3.63,3.63,0,0,0,3.52-3.24l.15-.75a3.94,3.94,0,0,1-3,1.33,3.49,3.49,0,0,1-3.68-3.29q0-.15,0-.29a4.75,4.75,0,0,1,4.67-4.83h0a3,3,0,0,1,3.1,2.06l.41-1.93h1L673.57,549C673,551.63,671.2,553,669,553Zm4.34-7.88A2.68,2.68,0,0,0,670.7,542a3.66,3.66,0,0,0-3.64,3.69s0,.07,0,.1a2.62,2.62,0,0,0,2.49,2.75h.21A3.64,3.64,0,0,0,673.38,545.16Z" transform="translate(-1 -1)"/><path class="cls-11" d="M689.08,543.12l.41-1.92h1l-1.76,8.26h-1l.27-1.26a4.13,4.13,0,0,1-3.15,1.39,3.49,3.49,0,0,1-3.58-3.41q0-.12,0-.24a4.82,4.82,0,0,1,4.71-4.88A3.06,3.06,0,0,1,689.08,543.12Zm-.42,2.28A2.73,2.73,0,0,0,686,542a3.76,3.76,0,0,0-3.66,3.85,2.63,2.63,0,0,0,2.46,2.8H685a3.73,3.73,0,0,0,3.63-3.25Z" transform="translate(-1 -1)"/><path class="cls-11" d="M702.53,538.06c-2.44,0-3.41,1.34-3.41,2.54s.78,1.83,2.54,2.12l1.12.18c2,.35,3.43,1.24,3.43,3,0,2-1.7,3.7-4.91,3.7a7.93,7.93,0,0,1-4.81-1.62l.64-.87a6.9,6.9,0,0,0,4.21,1.47c2.46,0,3.74-1.2,3.74-2.56,0-1.13-.89-1.78-2.67-2.09l-1.13-.19c-2.14-.36-3.29-1.37-3.29-3s1.42-3.69,4.61-3.69a7.5,7.5,0,0,1,4.59,1.44l-.6.86A6.76,6.76,0,0,0,702.53,538.06Z" transform="translate(-1 -1)"/><path class="cls-11" d="M711.83,549.6a3.42,3.42,0,0,1-3.68-3.56,4.83,4.83,0,0,1,4.67-5,3.13,3.13,0,0,1,3.36,3.26,4.5,4.5,0,0,1-.22,1.37h-6.8a1,1,0,0,0,0,.16V546a2.58,2.58,0,0,0,2.43,2.72h.35a3.83,3.83,0,0,0,2.77-1.1l.5.69A4.64,4.64,0,0,1,711.83,549.6Zm-2.51-4.77h5.84a2.89,2.89,0,0,0,0-.48,2.26,2.26,0,0,0-2.11-2.4h-.3a3.61,3.61,0,0,0-3.46,2.88Z" transform="translate(-1 -1)"/><path class="cls-11" d="M722.61,541.06a3.26,3.26,0,0,1,1.54.38l-.45.9a2.5,2.5,0,0,0-1.26-.32,3.14,3.14,0,0,0-2.94,2.81l-1,4.64h-1l1.76-8.26h1l-.23,1.08A3.32,3.32,0,0,1,722.61,541.06Z" transform="translate(-1 -1)"/><path class="cls-11" d="M727.18,549.48l-1.9-8.28h1l1.61,7.31,4.64-7.31h1.09l-5.31,8.28Z" transform="translate(-1 -1)"/><path class="cls-11" d="M733.69,549.46l1.76-8.26h1l-1.76,8.26Zm3.6-11.23a.69.69,0,0,1-.68.71h0a.69.69,0,0,1-.71-.66s0,0,0,0a.7.7,0,0,1,.67-.73h0a.71.71,0,0,1,.72.7s0,0,0,0Z" transform="translate(-1 -1)"/><path class="cls-11" d="M742.48,542a3.56,3.56,0,0,0-3.52,3.61v0a2.84,2.84,0,0,0,2.71,3h.16a3.42,3.42,0,0,0,2.42-1l.58.66a4.22,4.22,0,0,1-3,1.26,3.72,3.72,0,0,1-3.85-3.57q0-.14,0-.28a4.58,4.58,0,0,1,4.51-4.64h.08a3.67,3.67,0,0,1,3.2,1.54l-.78.56A3,3,0,0,0,742.48,542Z" transform="translate(-1 -1)"/><path class="cls-11" d="M750.3,549.6a3.42,3.42,0,0,1-3.68-3.56,4.83,4.83,0,0,1,4.67-5,3.13,3.13,0,0,1,3.36,3.26,4.5,4.5,0,0,1-.22,1.37h-6.8a1,1,0,0,0,0,.16V546a2.58,2.58,0,0,0,2.43,2.72h.35a3.83,3.83,0,0,0,2.77-1.1l.5.69A4.64,4.64,0,0,1,750.3,549.6Zm-2.51-4.77h5.84a2.89,2.89,0,0,0,0-.48,2.26,2.26,0,0,0-2.11-2.4h-.3A3.61,3.61,0,0,0,747.79,544.84Z" transform="translate(-1 -1)"/><path class="cls-11" d="M757.19,541.06h-.93l1.45-4.24h1.16Zm2.92,0h-.93l1.45-4.24h1.16Z" transform="translate(-1 -1)"/><path class="cls-12" d="M546.91,174.15c0,4.7-3.19,7.67-8.3,7.67H533V166.48h5.6C543.72,166.48,546.91,169.45,546.91,174.15Zm-12.56,6.4h4.27c4.46,0,6.89-2.51,6.89-6.4s-2.43-6.4-6.89-6.4h-4.27Z" transform="translate(-1 -1)"/><path class="cls-12" d="M561.94,170.46a3.39,3.39,0,0,1-2.64,3.46,3.62,3.62,0,0,1,3,3.72c0,2.94-2.16,4.19-5.49,4.19h-6.18V166.48h5.93C559.71,166.48,561.94,167.61,561.94,170.46Zm-10,2.93h4.56c2.33,0,4.07-.65,4.07-2.83s-1.73-2.82-4.08-2.82h-4.55Zm0,7.18h4.79c2.5,0,4.14-.75,4.14-3s-1.64-3-4.14-3h-4.79Z" transform="translate(-1 -1)"/><path class="cls-13" d="M661.71,156.76c-2,0-3.42.91-3.42,2.45,0,1.22.9,2,3,2.2l1.34.15c2.19.25,3.77,1.1,3.77,3.15,0,2.39-2.19,3.58-4.83,3.58a8,8,0,0,1-4.76-1.54l.59-.85a7.14,7.14,0,0,0,4.16,1.37c2.08,0,3.72-.82,3.72-2.48,0-1.33-1.07-2-3.12-2.21l-1.4-.16c-2.25-.25-3.61-1.26-3.61-3.15,0-2.27,2-3.54,4.55-3.54a7.43,7.43,0,0,1,4.39,1.35l-.55.87A6.55,6.55,0,0,0,661.71,156.76Z" transform="translate(-1 -1)"/><path class="cls-13" d="M676.5,164c0,.15,0,.28,0,.41h-6.93a3.09,3.09,0,0,0,3.15,3h.05a3.82,3.82,0,0,0,2.79-1.18l.54.68a4.48,4.48,0,0,1-3.39,1.36,4.26,4.26,0,0,1-.06-8.52,4,4,0,0,1,3.88,4Q676.51,163.88,676.5,164Zm-6.93-.45h5.91a2.91,2.91,0,0,0-2.87-2.88,3,3,0,0,0-3,2.88Z" transform="translate(-1 -1)"/><path class="cls-13" d="M684.11,160.08l-.26,1a3.27,3.27,0,0,0-1.47-.33c-1.38,0-2.36,1.12-2.36,2.78v4.66h-1v-8.26h1v1.4a2.84,2.84,0,0,1,2.55-1.55A3.42,3.42,0,0,1,684.11,160.08Z" transform="translate(-1 -1)"/><path class="cls-13" d="M688.84,168.18l-3.65-8.28h1.09l3.14,7.27,3.16-7.27h1.05L690,168.18Z" transform="translate(-1 -1)"/><path class="cls-13" d="M696.74,156.94a.69.69,0,0,1-.68.71h0a.69.69,0,0,1-.71-.66s0,0,0,0a.7.7,0,0,1,.67-.73h0a.71.71,0,0,1,.72.7S696.75,156.93,696.74,156.94Zm-1.22,11.23v-8.26h1v8.26Z" transform="translate(-1 -1)"/><path class="cls-13" d="M706.33,161.06l-.65.68a3.29,3.29,0,1,0-2.42,5.63,3.44,3.44,0,0,0,2.45-1l.62.69a4,4,0,0,1-3,1.28,4.26,4.26,0,0,1,0-8.52A4,4,0,0,1,706.33,161.06Z" transform="translate(-1 -1)"/><path class="cls-13" d="M715.86,164c0,.15,0,.28,0,.41h-6.93a3.09,3.09,0,0,0,3.15,3h.05a3.82,3.82,0,0,0,2.79-1.18l.54.68a4.48,4.48,0,0,1-3.39,1.36,4.26,4.26,0,0,1-.06-8.52,4,4,0,0,1,3.88,4Q715.87,163.88,715.86,164Zm-6.93-.45h5.91a2.91,2.91,0,0,0-2.87-2.88,3,3,0,0,0-3,2.88Z" transform="translate(-1 -1)"/><path class="cls-13" d="M668.1,179.33l-.9.6a4.8,4.8,0,0,0-4.07-2.09,5.25,5.25,0,0,0,0,10.5,4.75,4.75,0,0,0,4.06-2.09l.88.64a5.83,5.83,0,0,1-4.94,2.48,6.29,6.29,0,1,1,0-12.57h0A5.81,5.81,0,0,1,668.1,179.33Z" transform="translate(-1 -1)"/><path class="cls-13" d="M675.81,181.14l-.26,1a3.27,3.27,0,0,0-1.47-.33c-1.38,0-2.36,1.12-2.36,2.78v4.66h-1V181h1v1.4a2.84,2.84,0,0,1,2.55-1.55A3.42,3.42,0,0,1,675.81,181.14Z" transform="translate(-1 -1)"/><path class="cls-13" d="M684.83,185c0,.15,0,.28,0,.41h-6.93a3.09,3.09,0,0,0,3.15,3h.05a3.82,3.82,0,0,0,2.79-1.18l.54.68a4.48,4.48,0,0,1-3.39,1.36,4.26,4.26,0,0,1-.06-8.52,4,4,0,0,1,3.88,4Q684.84,184.95,684.83,185Zm-6.93-.45h5.91a2.91,2.91,0,0,0-2.87-2.88,3,3,0,0,0-3,2.88Z" transform="translate(-1 -1)"/><path class="cls-13" d="M694.11,182.56v-6h1v12.64h-1v-1.59a3.7,3.7,0,0,1-3.28,1.72,4.26,4.26,0,0,1,0-8.52A3.74,3.74,0,0,1,694.11,182.56Zm-6.38,2.55a3.19,3.19,0,1,0,0-.18q0,.09,0,.18Z" transform="translate(-1 -1)"/><path class="cls-13" d="M705.59,185c0,.15,0,.28,0,.41h-6.93a3.09,3.09,0,0,0,3.15,3h.05a3.82,3.82,0,0,0,2.79-1.18l.54.68a4.48,4.48,0,0,1-3.39,1.36,4.26,4.26,0,0,1-.06-8.52,4,4,0,0,1,3.88,4Q705.59,184.95,705.59,185Zm-6.93-.45h5.91a2.91,2.91,0,0,0-2.87-2.88,3,3,0,0,0-3,2.88Z" transform="translate(-1 -1)"/><path class="cls-13" d="M715.54,184.16v5.07h-1v-4.76a2.45,2.45,0,0,0-2.65-2.69,2.67,2.67,0,0,0-2.76,2.58q0,.08,0,.16v4.71h-1V181h1v1.45a3.34,3.34,0,0,1,3-1.58,3.2,3.2,0,0,1,3.48,3.33Z" transform="translate(-1 -1)"/><path class="cls-13" d="M720.28,181.88v4.5c0,1.4.74,2,1.84,2a3,3,0,0,0,1.84-.63l.47.75a3.71,3.71,0,0,1-2.4.82c-1.72,0-2.76-1-2.76-3v-4.52h-1.9V181h1.9v-2.7h1V181h3.81v.91Z" transform="translate(-1 -1)"/><path class="cls-13" d="M727.65,178a.69.69,0,0,1-.68.71h0a.69.69,0,0,1-.71-.66s0,0,0,0a.7.7,0,0,1,.67-.73h0a.71.71,0,0,1,.72.7S727.65,178,727.65,178Zm-1.22,11.23V181h1v8.26Z" transform="translate(-1 -1)"/><path class="cls-13" d="M737.36,189.23v-1.59a3.7,3.7,0,0,1-3.28,1.72,4.26,4.26,0,0,1,0-8.52,3.74,3.74,0,0,1,3.28,1.72V181h1v8.26ZM731,185.1a3.19,3.19,0,1,0,0-.18q0,.09,0,.18Z" transform="translate(-1 -1)"/><path class="cls-13" d="M741.54,189.23V176.59h1v12.64Z" transform="translate(-1 -1)"/><path class="cls-13" d="M748.43,181.71c-1.29,0-2.2.55-2.2,1.49,0,.77.61,1.18,1.88,1.33l1.05.12c1.73.2,2.71.91,2.71,2.22,0,1.57-1.43,2.48-3.56,2.48a5.57,5.57,0,0,1-3.4-1.05l.47-.75a4.49,4.49,0,0,0,2.94.93c1.49,0,2.52-.52,2.52-1.54,0-.77-.63-1.23-1.9-1.37l-1.06-.11c-1.87-.21-2.68-1-2.68-2.2,0-1.51,1.31-2.42,3.21-2.42a5.74,5.74,0,0,1,3.24.93l-.43.77A5.22,5.22,0,0,0,748.43,181.71Z" transform="translate(-1 -1)"/><path class="cls-13" d="M301.74,496.52c2.12,0,3.42,1.62,3.42,4.23v.48l5.45-4.65v1.33l-5.45,4.58v1.88h5.45v1.07H298.32v-4.69C298.32,498,299.56,496.52,301.74,496.52Zm2.45,7.86v-3.61c0-2-.86-3.14-2.45-3.14s-2.41,1.11-2.41,3.14v3.61Z" transform="translate(-1 -1)"/><path class="cls-13" d="M306.48,486.24a4.29,4.29,0,1,1-4.27,4.32v0a4.19,4.19,0,0,1,4.08-4.3Zm0,7.57a3.27,3.27,0,1,0-3.33-3.27,3.21,3.21,0,0,0,3.15,3.27Z" transform="translate(-1 -1)"/><path class="cls-13" d="M310.74,480.1a3.41,3.41,0,0,1-3.55,3.71h-4.85v-1h4.76a2.7,2.7,0,0,0,0-5.41h-4.76v-1h4.85a3.41,3.41,0,0,1,3.55,3.7Z" transform="translate(-1 -1)"/><path class="cls-13" d="M303.26,471.51h4.5c1.4,0,2-.74,2-1.84a3,3,0,0,0-.63-1.84l.75-.47a3.7,3.7,0,0,1,.83,2.4c0,1.72-1,2.76-3,2.76h-4.52v1.9h-.91v-1.9h-2.7v-1h2.7V467.7h.91Z" transform="translate(-1 -1)"/><path class="cls-13" d="M306.43,458.1l.41,0V465a3.09,3.09,0,0,0,3-3.14v-.05a3.82,3.82,0,0,0-1.18-2.79l.68-.54a4.49,4.49,0,0,1,1.36,3.39,4.27,4.27,0,0,1-8.53.06,4,4,0,0,1,4-3.88ZM306,465v-5.91A2.91,2.91,0,0,0,303.1,462,3,3,0,0,0,306,465Z" transform="translate(-1 -1)"/><path class="cls-13" d="M302.53,450.49l1,.25a3.27,3.27,0,0,0-.33,1.47c0,1.38,1.12,2.36,2.78,2.36h4.66v1h-8.26v-1h1.4a2.84,2.84,0,0,1-1.54-2.55A3.43,3.43,0,0,1,302.53,450.49Z" transform="translate(-1 -1)"/><path class="cls-12" d="M640,463.61l-1.12.75a6,6,0,0,0-5.09-2.61,6.56,6.56,0,0,0,0,13.11,5.93,5.93,0,0,0,5.08-2.61l1.1.8a7.28,7.28,0,0,1-6.17,3.1,7.85,7.85,0,1,1,0-15.7h0A7.25,7.25,0,0,1,640,463.61Z" transform="translate(-1 -1)"/><path class="cls-12" d="M643.27,476V460.19h1.25V476Z" transform="translate(-1 -1)"/><path class="cls-12" d="M658.4,470.82A5.36,5.36,0,1,1,653,465.5h0a5.23,5.23,0,0,1,5.37,5.09Q658.4,470.71,658.4,470.82Zm-9.45,0a4.08,4.08,0,1,0,4.08-4.15,4,4,0,0,0-4.08,3.93Q648.94,470.71,648.95,470.82Z" transform="translate(-1 -1)"/><path class="cls-12" d="M666.08,476.14c-2.54,0-4.63-1.5-4.63-4.43v-6.05h1.25v5.94a3.38,3.38,0,0,0,6.75,0v-5.94h1.25v6.05C670.71,474.64,668.61,476.14,666.08,476.14Z" transform="translate(-1 -1)"/><path class="cls-12" d="M683,467.64v-7.45h1.24V476H683v-2a4.62,4.62,0,0,1-4.09,2.15,5.33,5.33,0,0,1,0-10.65A4.67,4.67,0,0,1,683,467.64Zm-8,3.18a4,4,0,1,0,0-.22q0,.11,0,.22Z" transform="translate(-1 -1)"/><path class="cls-12" d="M695.68,468.88V476h-1.34V460.63h10.44v1.27h-9.1v5.71h8.74v1.27Z" transform="translate(-1 -1)"/><path class="cls-12" d="M717.68,470.82a5.36,5.36,0,1,1-5.39-5.33h0a5.23,5.23,0,0,1,5.37,5.09Q717.68,470.71,717.68,470.82Zm-9.45,0a4.08,4.08,0,1,0,4.08-4.15,4,4,0,0,0-4.08,3.93Q708.22,470.71,708.23,470.82Z" transform="translate(-1 -1)"/><path class="cls-12" d="M725.36,476.14c-2.54,0-4.63-1.5-4.63-4.43v-6.05H722v5.94a3.38,3.38,0,0,0,6.75,0v-5.94H730v6.05C730,474.64,727.89,476.14,725.36,476.14Z" transform="translate(-1 -1)"/><path class="cls-12" d="M743.13,469.65V476h-1.25V470a3.06,3.06,0,0,0-3.31-3.35,3.34,3.34,0,0,0-3.45,3.22q0,.1,0,.2V476h-1.25V465.66h1.24v1.81a4.16,4.16,0,0,1,3.68-2,4,4,0,0,1,4.34,4.15Z" transform="translate(-1 -1)"/><path class="cls-12" d="M755.43,467.64v-7.45h1.24V476h-1.24v-2a4.62,4.62,0,0,1-4.09,2.15,5.33,5.33,0,0,1,0-10.65A4.67,4.67,0,0,1,755.43,467.64Zm-8,3.18a4,4,0,1,0,0-.22q0,.11,0,.22Z" transform="translate(-1 -1)"/><path class="cls-12" d="M767,465.88l-.32,1.22a4.08,4.08,0,0,0-1.83-.42c-1.72,0-2.95,1.4-2.95,3.48V476h-1.24V465.66h1.23v1.75a3.55,3.55,0,0,1,3.18-1.93A4.28,4.28,0,0,1,767,465.88Z" transform="translate(-1 -1)"/><path class="cls-12" d="M769.3,480.39l3.95-6.72-4.85-8h1.4l4.16,6.79,3.89-6.79h1.37l-8.54,14.73Z" transform="translate(-1 -1)"/><path class="cls-12" d="M636.78,491.22c0,2.64-2,4.28-5.28,4.28h-.6l5.81,6.81H635l-5.72-6.81H627v6.81h-1.34V487h5.85C634.87,487,636.78,488.5,636.78,491.22ZM627,494.28h4.51c2.55,0,3.93-1.07,3.93-3.06s-1.38-3-3.93-3H627Z" transform="translate(-1 -1)"/><path class="cls-12" d="M644.44,502.47c-2.54,0-4.63-1.5-4.63-4.43V492h1.25v5.94a3.38,3.38,0,0,0,6.75,0V492h1.25V498C649.07,501,647,502.47,644.44,502.47Z" transform="translate(-1 -1)"/><path class="cls-12" d="M662.21,496v6.33H661v-5.94a3.06,3.06,0,0,0-3.31-3.35,3.34,3.34,0,0,0-3.45,3.22q0,.1,0,.2v5.88h-1.25V492h1.24v1.81a4.16,4.16,0,0,1,3.68-2,4,4,0,0,1,4.34,4.15Z" transform="translate(-1 -1)"/><path class="cls-12" d="M668.15,493.13v5.62c0,1.74.92,2.54,2.29,2.54a3.72,3.72,0,0,0,2.3-.79l.59.93a4.63,4.63,0,0,1-3,1c-2.15,0-3.44-1.2-3.44-3.69v-5.65h-2.37V492h2.37v-3.37h1.25V492h4.76v1.14Z" transform="translate(-1 -1)"/><path class="cls-12" d="M677.36,488.28a.87.87,0,0,1-.84.89h-.05a.86.86,0,0,1-.89-.83s0,0,0-.06a.89.89,0,1,1,1.79,0S677.36,488.27,677.36,488.28Zm-1.52,14V492h1.25V502.3Z" transform="translate(-1 -1)"/><path class="cls-12" d="M698.36,496v6.33h-1.25v-5.94a3.06,3.06,0,0,0-3.32-3.35,3.34,3.34,0,0,0-3.45,3.22q0,.1,0,.2v5.88h-1.25v-5.94a3.06,3.06,0,0,0-3.31-3.35,3.34,3.34,0,0,0-3.45,3.22q0,.1,0,.2v5.88h-1.25V492h1.24v1.81a4.16,4.16,0,0,1,3.68-2,4.05,4.05,0,0,1,4,2.4,4.19,4.19,0,0,1,4-2.4,4,4,0,0,1,4.35,4.15Z" transform="translate(-1 -1)"/><path class="cls-12" d="M711.36,497.08c0,.19,0,.35,0,.52h-8.65a3.86,3.86,0,0,0,3.93,3.78h.06a4.77,4.77,0,0,0,3.49-1.47l.67.85a5.6,5.6,0,0,1-4.23,1.7,5.33,5.33,0,0,1-.08-10.65C709.28,491.82,711.33,494,711.36,497.08Zm-8.65-.56h7.38a3.64,3.64,0,0,0-3.58-3.6A3.78,3.78,0,0,0,702.71,496.53Z" transform="translate(-1 -1)"/><path class="cls-12" d="M721.34,496.08c0,3.78,1.94,7.11,4.86,8.22l-.43,1.15c-3.39-1.23-5.76-5-5.76-9.37s2.37-8.16,5.76-9.38l.43,1.15C723.28,489,721.34,492.29,721.34,496.08Z" transform="translate(-1 -1)"/><path class="cls-12" d="M729.41,502.3V487H739.9v1.26h-9.15v5.73h8.89v1.25h-8.89V501H740v1.26Z" transform="translate(-1 -1)"/><path class="cls-12" d="M755.27,491.22c0,2.64-2,4.28-5.28,4.28h-.6l5.81,6.81h-1.67l-5.72-6.81h-2.35v6.81h-1.34V487H750C753.36,487,755.27,488.5,755.27,491.22Zm-9.81,3.06H750c2.55,0,3.93-1.07,3.93-3.06s-1.38-3-3.93-3h-4.51Z" transform="translate(-1 -1)"/><path class="cls-12" d="M764,488.06c-2.46,0-4.27,1.14-4.27,3.06,0,1.52,1.13,2.46,3.75,2.75l1.68.19c2.73.32,4.71,1.37,4.71,3.94,0,3-2.73,4.47-6,4.47a10,10,0,0,1-5.94-1.92l.73-1.06a8.92,8.92,0,0,0,5.2,1.71c2.6,0,4.65-1,4.65-3.09,0-1.67-1.34-2.47-3.89-2.76l-1.74-.2c-2.81-.32-4.51-1.57-4.51-3.94,0-2.84,2.52-4.42,5.68-4.42a9.28,9.28,0,0,1,5.48,1.69l-.69,1.09A8.17,8.17,0,0,0,764,488.06Z" transform="translate(-1 -1)"/><path class="cls-12" d="M777.05,496.05c0-3.78-1.94-7.12-4.86-8.22l.43-1.15c3.39,1.23,5.75,5,5.75,9.37s-2.37,8.16-5.75,9.38l-.43-1.15C775.11,503.18,777.05,499.84,777.05,496.05Z" transform="translate(-1 -1)"/><path class="cls-12" d="M107.12,336l-1.12.75a6,6,0,0,0-5.09-2.61,6.56,6.56,0,0,0,0,13.11,5.93,5.93,0,0,0,5.08-2.61l1.1.8a7.28,7.28,0,0,1-6.17,3.1,7.85,7.85,0,0,1,0-15.7h0A7.25,7.25,0,0,1,107.12,336Z" transform="translate(-1 -1)"/><path class="cls-12" d="M110.72,348.37V333h1.34V347.1h9.11v1.27Z" transform="translate(-1 -1)"/><path class="cls-12" d="M123.93,348.37V333h1.34v15.35Z" transform="translate(-1 -1)"/><rect class="cls-3" x="431.29" y="265.78" width="154.28" height="149.97"/><path class="cls-12" d="M493.49,324l-1.12.75a6,6,0,0,0-5.09-2.61,6.56,6.56,0,0,0,0,13.11,5.93,5.93,0,0,0,5.08-2.61l1.1.8a7.28,7.28,0,0,1-6.17,3.1,7.85,7.85,0,1,1,0-15.7h0A7.25,7.25,0,0,1,493.49,324Z" transform="translate(-1 -1)"/><path class="cls-12" d="M496.8,336.41V320.62h1.25v15.79Z" transform="translate(-1 -1)"/><path class="cls-12" d="M511.94,331.25a5.36,5.36,0,1,1-5.39-5.33h0a5.23,5.23,0,0,1,5.37,5.09Q511.94,331.14,511.94,331.25Zm-9.45,0a4.08,4.08,0,1,0,4.08-4.15,4,4,0,0,0-4.08,3.93q0,.11,0,.23Z" transform="translate(-1 -1)"/><path class="cls-12" d="M519.62,336.57c-2.54,0-4.63-1.5-4.63-4.43v-6.05h1.25V332a3.38,3.38,0,0,0,6.75,0v-5.94h1.25v6.05C524.24,335.07,522.15,336.57,519.62,336.57Z" transform="translate(-1 -1)"/><path class="cls-12" d="M536.54,328.08v-7.45h1.24v15.79h-1.24v-2a4.62,4.62,0,0,1-4.09,2.15,5.33,5.33,0,0,1,0-10.65A4.67,4.67,0,0,1,536.54,328.08Zm-8,3.18a4,4,0,1,0,0-.22q0,.11,0,.22Z" transform="translate(-1 -1)"/><path class="cls-12" d="M471.58,350.37l-1.12.75a6,6,0,0,0-5.09-2.61,6.56,6.56,0,0,0,0,13.11,5.93,5.93,0,0,0,5.08-2.61l1.1.8a7.28,7.28,0,0,1-6.17,3.1,7.85,7.85,0,1,1,0-15.7h0A7.25,7.25,0,0,1,471.58,350.37Z" transform="translate(-1 -1)"/><path class="cls-12" d="M484.62,357.58a5.36,5.36,0,1,1-5.39-5.33h0a5.23,5.23,0,0,1,5.37,5.09Q484.62,357.46,484.62,357.58Zm-9.45,0a4.08,4.08,0,1,0,4.08-4.15,4,4,0,0,0-4.08,3.93q0,.11,0,.23Z" transform="translate(-1 -1)"/><path class="cls-12" d="M497.06,356.41v6.33h-1.25v-5.94a3.06,3.06,0,0,0-3.31-3.35,3.34,3.34,0,0,0-3.45,3.22q0,.1,0,.2v5.88H487.8V352.42H489v1.81a4.16,4.16,0,0,1,3.68-2,4,4,0,0,1,4.34,4.15Z" transform="translate(-1 -1)"/><path class="cls-12" d="M503,353.56v5.62c0,1.74.92,2.54,2.29,2.54a3.72,3.72,0,0,0,2.3-.79l.59.93a4.63,4.63,0,0,1-3,1c-2.15,0-3.44-1.2-3.44-3.69v-5.65h-2.37v-1.14h2.37v-3.37H503v3.37h4.76v1.14Z" transform="translate(-1 -1)"/><path class="cls-12" d="M517,352.64l-.32,1.22a4.08,4.08,0,0,0-1.83-.42c-1.72,0-2.95,1.4-2.95,3.48v5.82h-1.24V352.42h1.23v1.75a3.55,3.55,0,0,1,3.18-1.93A4.28,4.28,0,0,1,517,352.64Z" transform="translate(-1 -1)"/><path class="cls-12" d="M529.08,357.58a5.36,5.36,0,1,1-5.39-5.33h0a5.23,5.23,0,0,1,5.37,5.09Q529.08,357.46,529.08,357.58Zm-9.45,0a4.08,4.08,0,1,0,4.08-4.15,4,4,0,0,0-4.08,3.93q0,.11,0,.23Z" transform="translate(-1 -1)"/><path class="cls-12" d="M532.26,362.73V346.95h1.25v15.79Z" transform="translate(-1 -1)"/><path class="cls-12" d="M537.49,362.73V346.95h1.25v15.79Z" transform="translate(-1 -1)"/><path class="cls-12" d="M551.84,357.52c0,.19,0,.35,0,.52h-8.65a3.86,3.86,0,0,0,3.93,3.78h.06a4.77,4.77,0,0,0,3.49-1.47l.67.85a5.6,5.6,0,0,1-4.23,1.7,5.33,5.33,0,0,1-.08-10.65C549.76,352.25,551.81,354.44,551.84,357.52ZM543.2,357h7.38a3.64,3.64,0,0,0-3.58-3.6A3.78,3.78,0,0,0,543.2,357Z" transform="translate(-1 -1)"/><path class="cls-12" d="M561.36,352.64l-.32,1.22a4.08,4.08,0,0,0-1.83-.42c-1.72,0-2.95,1.4-2.95,3.48v5.82H555V352.42h1.23v1.75a3.55,3.55,0,0,1,3.18-1.93A4.28,4.28,0,0,1,561.36,352.64Z" transform="translate(-1 -1)"/><line class="cls-7" x1="181.7" y1="324.88" x2="421.6" y2="324.88"/><polygon class="cls-14" points="419.83 330.9 430.3 324.88 419.83 318.87 419.83 330.9"/><line class="cls-7" x1="430.3" y1="350.15" x2="190.4" y2="350.15"/><polygon class="cls-14" points="192.16 344.13 181.7 350.15 192.16 356.16 192.16 344.13"/><line class="cls-7" x1="586.11" y1="328.28" x2="820.01" y2="328.28"/><polygon class="cls-14" points="818.24 334.3 828.71 328.28 818.24 322.27 818.24 334.3"/><line class="cls-15" x1="546.18" y1="265.78" x2="546.18" y2="221.16"/><polygon class="cls-14" points="552.82 223.11 546.18 211.61 539.54 223.11 552.82 223.11"/><line class="cls-7" x1="828.71" y1="353.84" x2="594.8" y2="353.84"/><polygon class="cls-14" points="596.57 347.82 586.11 353.84 596.57 359.86 596.57 347.82"/><path class="cls-13" d="M232.25,310.39l-.9.6a4.8,4.8,0,0,0-4.07-2.09,5.25,5.25,0,0,0,0,10.5,4.75,4.75,0,0,0,4.06-2.09l.88.64a5.83,5.83,0,0,1-4.94,2.48,6.29,6.29,0,1,1,0-12.57h0A5.81,5.81,0,0,1,232.25,310.39Z" transform="translate(-1 -1)"/><path class="cls-13" d="M240,312.21l-.26,1a3.27,3.27,0,0,0-1.47-.33c-1.38,0-2.36,1.12-2.36,2.78v4.66h-1V312h1v1.4a2.84,2.84,0,0,1,2.55-1.55A3.42,3.42,0,0,1,240,312.21Z" transform="translate(-1 -1)"/><path class="cls-13" d="M249,316.11c0,.15,0,.28,0,.41H242a3.09,3.09,0,0,0,3.15,3h.05a3.82,3.82,0,0,0,2.79-1.18l.54.68a4.48,4.48,0,0,1-3.39,1.36,4.26,4.26,0,0,1-.06-8.52,4,4,0,0,1,3.88,4Q249,316,249,316.11Zm-6.93-.45H248a2.91,2.91,0,0,0-2.87-2.88,3,3,0,0,0-3,2.88Z" transform="translate(-1 -1)"/><path class="cls-13" d="M258.26,320.29V318.7a3.7,3.7,0,0,1-3.28,1.72,4.26,4.26,0,0,1,0-8.52,3.74,3.74,0,0,1,3.28,1.72V312h1v8.26Zm-6.38-4.13a3.19,3.19,0,1,0,0-.18Q251.88,316.08,251.88,316.17Z" transform="translate(-1 -1)"/><path class="cls-13" d="M264.22,312.95v4.5c0,1.4.74,2,1.84,2a3,3,0,0,0,1.84-.63l.47.75a3.71,3.71,0,0,1-2.4.82c-1.72,0-2.76-1-2.76-3v-4.52h-1.9V312h1.9v-2.7h1V312H268v.91Z" transform="translate(-1 -1)"/><path class="cls-13" d="M277.63,316.11c0,.15,0,.28,0,.41h-6.93a3.09,3.09,0,0,0,3.15,3h.05a3.82,3.82,0,0,0,2.79-1.18l.54.68a4.48,4.48,0,0,1-3.39,1.36,4.26,4.26,0,0,1-.06-8.52,4,4,0,0,1,3.88,4Q277.64,316,277.63,316.11Zm-6.93-.45h5.91a2.91,2.91,0,0,0-2.87-2.88,3,3,0,0,0-3,2.88Z" transform="translate(-1 -1)"/><path class="cls-13" d="M289.21,308.89c-2,0-3.42.91-3.42,2.45,0,1.22.9,2,3,2.2l1.34.15c2.19.25,3.77,1.1,3.77,3.15,0,2.39-2.19,3.58-4.83,3.58a8,8,0,0,1-4.76-1.54l.59-.85a7.14,7.14,0,0,0,4.16,1.37c2.08,0,3.72-.82,3.72-2.48,0-1.33-1.07-2-3.12-2.21l-1.4-.16c-2.25-.25-3.61-1.26-3.61-3.15,0-2.27,2-3.54,4.55-3.54a7.43,7.43,0,0,1,4.39,1.35l-.55.87A6.55,6.55,0,0,0,289.21,308.89Z" transform="translate(-1 -1)"/><path class="cls-13" d="M304,316.11c0,.15,0,.28,0,.41H297a3.09,3.09,0,0,0,3.15,3h.05a3.82,3.82,0,0,0,2.79-1.18l.54.68a4.48,4.48,0,0,1-3.39,1.36,4.26,4.26,0,0,1-.06-8.52,4,4,0,0,1,3.88,4Q304,316,304,316.11Zm-6.93-.45H303a2.91,2.91,0,0,0-2.87-2.88A3,3,0,0,0,297.07,315.67Z" transform="translate(-1 -1)"/><path class="cls-13" d="M311.6,312.21l-.26,1a3.27,3.27,0,0,0-1.47-.33c-1.38,0-2.36,1.12-2.36,2.78v4.66h-1V312h1v1.4a2.84,2.84,0,0,1,2.55-1.55A3.42,3.42,0,0,1,311.6,312.21Z" transform="translate(-1 -1)"/><path class="cls-13" d="M316.33,320.31,312.68,312h1.09l3.14,7.27,3.16-7.27h1.05l-3.64,8.28Z" transform="translate(-1 -1)"/><path class="cls-13" d="M324.24,309.06a.69.69,0,0,1-.68.71h0a.69.69,0,0,1-.71-.66s0,0,0,0a.7.7,0,0,1,.67-.73h0a.71.71,0,0,1,.72.7S324.24,309.05,324.24,309.06ZM323,320.29V312h1v8.26Z" transform="translate(-1 -1)"/><path class="cls-13" d="M333.82,313.18l-.65.68a3.29,3.29,0,1,0-2.42,5.63,3.44,3.44,0,0,0,2.45-1l.62.69a4,4,0,0,1-3,1.28,4.26,4.26,0,0,1,0-8.52A4,4,0,0,1,333.82,313.18Z" transform="translate(-1 -1)"/><path class="cls-13" d="M343.35,316.11c0,.15,0,.28,0,.41h-6.93a3.09,3.09,0,0,0,3.15,3h.05a3.82,3.82,0,0,0,2.79-1.18l.54.68a4.48,4.48,0,0,1-3.39,1.36,4.26,4.26,0,0,1-.06-8.52,4,4,0,0,1,3.88,4Q343.36,316,343.35,316.11Zm-6.93-.45h5.91a2.91,2.91,0,0,0-2.87-2.88,3,3,0,0,0-3,2.88Z" transform="translate(-1 -1)"/><path class="cls-13" d="M351.33,315.31c0,3,1.55,5.7,3.89,6.58l-.34.92c-2.71-1-4.61-4-4.61-7.51s1.9-6.53,4.61-7.52l.34.92C352.88,309.6,351.33,312.28,351.33,315.31Z" transform="translate(-1 -1)"/><path class="cls-13" d="M366.78,313.59V308h1.07v12.29h-1.07v-5.68h-7.92v5.68h-1.07V308h1.07v5.59Z" transform="translate(-1 -1)"/><path class="cls-13" d="M375.55,309v11.27h-1.07V309h-4.43v-1H380v1Z" transform="translate(-1 -1)"/><path class="cls-13" d="M386.42,309v11.27h-1.07V309h-4.43v-1h9.93v1Z" transform="translate(-1 -1)"/><path class="cls-13" d="M394.13,320.29h-1.07V308h4.56c2.71,0,4.35,1.35,4.35,3.64s-1.63,3.64-4.35,3.64h-3.49Zm0-6h3.47c2.06,0,3.26-.9,3.26-2.62s-1.19-2.63-3.26-2.63h-3.47Z" transform="translate(-1 -1)"/><path class="cls-13" d="M407.53,315.29c0-3-1.55-5.7-3.89-6.58l.34-.92c2.71,1,4.61,4,4.61,7.51s-1.9,6.53-4.61,7.51l-.34-.92C406,321,407.53,318.32,407.53,315.29Z" transform="translate(-1 -1)"/><path class="cls-13" d="M617.4,313.79l-.9.6a4.8,4.8,0,0,0-4.07-2.09,5.25,5.25,0,0,0,0,10.5,4.75,4.75,0,0,0,4.06-2.09l.88.64a5.83,5.83,0,0,1-4.94,2.48,6.29,6.29,0,0,1,0-12.57h0A5.81,5.81,0,0,1,617.4,313.79Z" transform="translate(-1 -1)"/><path class="cls-13" d="M625.11,315.61l-.26,1a3.27,3.27,0,0,0-1.47-.33c-1.38,0-2.36,1.12-2.36,2.78v4.66h-1v-8.26h1v1.4a2.84,2.84,0,0,1,2.55-1.55A3.42,3.42,0,0,1,625.11,315.61Z" transform="translate(-1 -1)"/><path class="cls-13" d="M634.14,319.52c0,.15,0,.28,0,.41h-6.93a3.09,3.09,0,0,0,3.15,3h.05a3.82,3.82,0,0,0,2.79-1.18l.54.68a4.48,4.48,0,0,1-3.39,1.36,4.26,4.26,0,0,1-.06-8.52,4,4,0,0,1,3.88,4Q634.14,319.41,634.14,319.52Zm-6.93-.45h5.91a2.91,2.91,0,0,0-2.87-2.88A3,3,0,0,0,627.21,319.07Z" transform="translate(-1 -1)"/><path class="cls-13" d="M643.41,323.69v-1.59a3.7,3.7,0,0,1-3.28,1.72,4.26,4.26,0,0,1,0-8.52,3.74,3.74,0,0,1,3.28,1.72v-1.59h1v8.26ZM637,319.57a3.19,3.19,0,1,0,0-.18Q637,319.48,637,319.57Z" transform="translate(-1 -1)"/><path class="cls-13" d="M649.37,316.35v4.5c0,1.4.74,2,1.84,2a3,3,0,0,0,1.84-.63l.47.75a3.71,3.71,0,0,1-2.4.82c-1.72,0-2.76-1-2.76-3v-4.52h-1.9v-.91h1.9v-2.7h1v2.7h3.81v.91Z" transform="translate(-1 -1)"/><path class="cls-13" d="M662.78,319.52c0,.15,0,.28,0,.41h-6.93a3.09,3.09,0,0,0,3.15,3H659a3.82,3.82,0,0,0,2.79-1.18l.54.68a4.48,4.48,0,0,1-3.39,1.36,4.26,4.26,0,0,1-.06-8.52,4,4,0,0,1,3.88,4Q662.79,319.41,662.78,319.52Zm-6.93-.45h5.91a2.91,2.91,0,0,0-2.87-2.88A3,3,0,0,0,655.85,319.07Z" transform="translate(-1 -1)"/><path class="cls-13" d="M674.35,312.29c-2,0-3.42.91-3.42,2.45,0,1.22.9,2,3,2.2l1.34.15c2.19.25,3.77,1.1,3.77,3.15,0,2.39-2.19,3.58-4.83,3.58a8,8,0,0,1-4.76-1.54l.59-.85a7.14,7.14,0,0,0,4.16,1.37c2.08,0,3.72-.82,3.72-2.48,0-1.33-1.07-2-3.12-2.21l-1.4-.16c-2.25-.25-3.61-1.26-3.61-3.15,0-2.27,2-3.54,4.55-3.54a7.43,7.43,0,0,1,4.39,1.35l-.55.87A6.55,6.55,0,0,0,674.35,312.29Z" transform="translate(-1 -1)"/><path class="cls-13" d="M689.14,319.52c0,.15,0,.28,0,.41H682.2a3.09,3.09,0,0,0,3.15,3h.05a3.82,3.82,0,0,0,2.79-1.18l.54.68a4.48,4.48,0,0,1-3.39,1.36,4.26,4.26,0,0,1-.06-8.52,4,4,0,0,1,3.88,4Q689.15,319.41,689.14,319.52Zm-6.93-.45h5.91a2.91,2.91,0,0,0-2.87-2.88A3,3,0,0,0,682.22,319.07Z" transform="translate(-1 -1)"/><path class="cls-13" d="M696.75,315.61l-.26,1a3.27,3.27,0,0,0-1.47-.33c-1.38,0-2.36,1.12-2.36,2.78v4.66h-1v-8.26h1v1.4a2.84,2.84,0,0,1,2.55-1.55A3.42,3.42,0,0,1,696.75,315.61Z" transform="translate(-1 -1)"/><path class="cls-13" d="M701.48,323.71l-3.65-8.28h1.09l3.14,7.27,3.16-7.27h1.05l-3.64,8.28Z" transform="translate(-1 -1)"/><path class="cls-13" d="M709.38,312.47a.69.69,0,0,1-.68.71h0a.69.69,0,0,1-.71-.66s0,0,0,0a.7.7,0,0,1,.67-.73h0a.71.71,0,0,1,.72.7S709.39,312.46,709.38,312.47Zm-1.22,11.23v-8.26h1v8.26Z" transform="translate(-1 -1)"/><path class="cls-13" d="M719,316.58l-.65.68a3.29,3.29,0,1,0-2.42,5.63,3.44,3.44,0,0,0,2.45-1l.62.69a4,4,0,0,1-3,1.28,4.26,4.26,0,0,1,0-8.52A4,4,0,0,1,719,316.58Z" transform="translate(-1 -1)"/><path class="cls-13" d="M728.5,319.52c0,.15,0,.28,0,.41h-6.93a3.09,3.09,0,0,0,3.15,3h.05a3.82,3.82,0,0,0,2.79-1.18l.54.68a4.48,4.48,0,0,1-3.39,1.36,4.26,4.26,0,0,1-.06-8.52,4,4,0,0,1,3.88,4Q728.51,319.41,728.5,319.52Zm-6.93-.45h5.91a2.91,2.91,0,0,0-2.87-2.88A3,3,0,0,0,721.57,319.07Z" transform="translate(-1 -1)"/><path class="cls-13" d="M736.48,318.71c0,3,1.55,5.7,3.89,6.58l-.34.92c-2.71-1-4.61-4-4.61-7.51s1.9-6.53,4.61-7.52l.34.92C738,313,736.48,315.68,736.48,318.71Z" transform="translate(-1 -1)"/><path class="cls-13" d="M751.92,317V311.4H753v12.29h-1.07V318H744v5.68h-1.07V311.4H744V317Z" transform="translate(-1 -1)"/><path class="cls-13" d="M760.7,312.42v11.27h-1.07V312.42H755.2v-1h9.93v1Z" transform="translate(-1 -1)"/><path class="cls-13" d="M771.57,312.42v11.27H770.5V312.42h-4.43v-1H776v1Z" transform="translate(-1 -1)"/><path class="cls-13" d="M779.27,323.69H778.2V311.4h4.56c2.71,0,4.35,1.35,4.35,3.64s-1.63,3.64-4.35,3.64h-3.49Zm0-6h3.47c2.06,0,3.26-.9,3.26-2.62s-1.19-2.63-3.26-2.63h-3.47Z" transform="translate(-1 -1)"/><path class="cls-13" d="M792.68,318.69c0-3-1.55-5.7-3.89-6.58l.34-.92c2.71,1,4.61,4,4.61,7.51s-1.9,6.53-4.61,7.51l-.34-.92C791.12,324.4,792.68,321.72,792.68,318.69Z" transform="translate(-1 -1)"/><polyline class="cls-16" points="53.56 321.46 62.78 313.4 53.56 305.34"/><line class="cls-17" x1="62.78" y1="321.46" x2="75" y2="321.46"/><path class="cls-13" d="M1096,630V618.87l-4.72,9.67h-1.14l-4.72-9.62V630h-1.08V617.64H1086l4.75,9.64,4.74-9.64h1.63V630Z" transform="translate(-1 -1)"/><path class="cls-13" d="M1101.77,618.71a.7.7,0,0,1-.68.72h0a.69.69,0,0,1-.72-.67s0,0,0,0a.71.71,0,0,1,.68-.73h0a.71.71,0,0,1,.72.7S1101.77,618.7,1101.77,618.71Zm-1.23,11.3V621.7h1V630Z" transform="translate(-1 -1)"/><path class="cls-13" d="M1112.22,624.91V630h-1v-4.79a2.46,2.46,0,0,0-2.67-2.7,2.69,2.69,0,0,0-2.78,2.59q0,.08,0,.16V630h-1V621.7h1v1.46a3.36,3.36,0,0,1,3-1.59,3.22,3.22,0,0,1,3.5,3.35Z" transform="translate(-1 -1)"/><path class="cls-13" d="M1116.56,618.71a.7.7,0,0,1-.68.72h0a.69.69,0,0,1-.72-.67s0,0,0,0a.71.71,0,0,1,.68-.73h0a.71.71,0,0,1,.72.7S1116.56,618.7,1116.56,618.71Zm-1.23,11.3V621.7h1V630Z" transform="translate(-1 -1)"/><path class="cls-13" d="M1127.52,625.86a4.32,4.32,0,1,1-4.35-4.29h0a4.22,4.22,0,0,1,4.33,4.1Q1127.52,625.76,1127.52,625.86Zm-7.62,0a3.29,3.29,0,1,0,3.29-3.35,3.23,3.23,0,0,0-3.29,3.17Q1119.9,625.77,1119.91,625.86Z" transform="translate(-1 -1)"/><path class="cls-13" d="M1146.93,623.83a6.33,6.33,0,1,1-6.34-6.33h0a6.13,6.13,0,0,1,6.33,5.92Q1146.93,623.62,1146.93,623.83Zm-11.55,0a5.21,5.21,0,1,0,5.21-5.28,5.07,5.07,0,0,0-5.22,4.93Q1135.37,623.65,1135.38,623.83Z" transform="translate(-1 -1)"/><path class="cls-13" d="M1158.08,625.86a4.14,4.14,0,0,1-4,4.28h-.18a3.73,3.73,0,0,1-3.28-1.71V630h-1V617.29h1v6a3.74,3.74,0,0,1,3.28-1.71,4.14,4.14,0,0,1,4.16,4.13Q1158.08,625.77,1158.08,625.86Zm-7.51,0a3.24,3.24,0,1,0,3.23-3.35,3.2,3.2,0,0,0-3.24,3.15Q1150.56,625.76,1150.57,625.86Z" transform="translate(-1 -1)"/><path class="cls-13" d="M1159.8,633.65a2.41,2.41,0,0,1-1.15-.29l.25-.87a1.62,1.62,0,0,0,.82.21c.6,0,.93-.36.93-1.17V621.7h1v9.89C1161.66,632.93,1161,633.65,1159.8,633.65Zm2.07-14.94a.7.7,0,0,1-.68.72h0a.69.69,0,0,1-.71-.67s0,0,0,0a.71.71,0,0,1,.68-.73h0a.71.71,0,0,1,.72.7S1161.87,618.7,1161.87,618.71Z" transform="translate(-1 -1)"/><path class="cls-13" d="M1172.22,625.81c0,.15,0,.28,0,.42h-7a3.11,3.11,0,0,0,3.17,3h.05a3.84,3.84,0,0,0,2.81-1.18l.54.69a4.51,4.51,0,0,1-3.41,1.37,4.29,4.29,0,0,1-.06-8.58,4,4,0,0,1,3.91,4Q1172.22,625.7,1172.22,625.81Zm-7-.45h5.95a2.93,2.93,0,0,0-2.89-2.9A3,3,0,0,0,1165.25,625.35Z" transform="translate(-1 -1)"/><path class="cls-13" d="M1181.43,622.85l-.65.68a3.31,3.31,0,1,0-2.44,5.66,3.46,3.46,0,0,0,2.47-1l.63.69a4,4,0,0,1-3.07,1.29,4.29,4.29,0,0,1,0-8.58A4,4,0,0,1,1181.43,622.85Z" transform="translate(-1 -1)"/><path class="cls-13" d="M1185.72,622.62v4.53c0,1.4.74,2,1.85,2a3,3,0,0,0,1.86-.64l.48.75a3.73,3.73,0,0,1-2.41.83c-1.73,0-2.77-1-2.77-3v-4.55h-1.91v-.92h1.91V619h1v2.71h3.83v.92Z" transform="translate(-1 -1)"/><path class="cls-13" d="M1201,618.53c-2,0-3.45.92-3.45,2.46,0,1.23.91,2,3,2.22l1.35.15c2.2.26,3.8,1.1,3.8,3.17,0,2.4-2.2,3.6-4.86,3.6a8.06,8.06,0,0,1-4.79-1.55l.59-.86a7.19,7.19,0,0,0,4.19,1.38c2.09,0,3.75-.82,3.75-2.49,0-1.34-1.08-2-3.14-2.23l-1.4-.16c-2.26-.26-3.63-1.26-3.63-3.17,0-2.29,2-3.56,4.58-3.56a7.48,7.48,0,0,1,4.42,1.36l-.56.87A6.59,6.59,0,0,0,1201,618.53Z" transform="translate(-1 -1)"/><path class="cls-13" d="M1210.12,622.62v4.53c0,1.4.74,2,1.85,2a3,3,0,0,0,1.86-.64l.48.75a3.73,3.73,0,0,1-2.41.83c-1.73,0-2.77-1-2.77-3v-4.55h-1.91v-.92h1.91V619h1v2.71H1214v.92Z" transform="translate(-1 -1)"/><path class="cls-13" d="M1224.24,625.86a4.32,4.32,0,1,1-4.35-4.29h0a4.22,4.22,0,0,1,4.33,4.1Q1224.24,625.76,1224.24,625.86Zm-7.62,0a3.29,3.29,0,1,0,3.29-3.35,3.23,3.23,0,0,0-3.29,3.17Q1216.62,625.77,1216.63,625.86Z" transform="translate(-1 -1)"/><path class="cls-13" d="M1231.9,621.87l-.26,1a3.29,3.29,0,0,0-1.48-.34c-1.39,0-2.38,1.13-2.38,2.8V630h-1V621.7h1v1.41a2.86,2.86,0,0,1,2.56-1.56A3.44,3.44,0,0,1,1231.9,621.87Z" transform="translate(-1 -1)"/><path class="cls-13" d="M1240.41,630v-1.6a3.73,3.73,0,0,1-3.3,1.73,4.29,4.29,0,0,1,0-8.58,3.77,3.77,0,0,1,3.3,1.73v-1.6h1V630Zm-6.42-4.15a3.21,3.21,0,1,0,0-.18Q1234,625.77,1234,625.86Z" transform="translate(-1 -1)"/><path class="cls-13" d="M1251.32,623.32V621.7h1v7.75c0,2.76-1.92,4.21-4.36,4.21a5.3,5.3,0,0,1-3.5-1.2l.51-.73a4.74,4.74,0,0,0,3,1,3.07,3.07,0,0,0,3.36-3.24v-1.18a3.63,3.63,0,0,1-3.24,1.75,4.25,4.25,0,0,1,0-8.49A3.64,3.64,0,0,1,1251.32,623.32Zm-6.34,2.48a3.21,3.21,0,1,0,3.21-3.3,3.16,3.16,0,0,0-3.21,3.12Q1245,625.72,1245,625.81Z" transform="translate(-1 -1)"/><path class="cls-13" d="M1262.88,625.81c0,.15,0,.28,0,.42h-7a3.11,3.11,0,0,0,3.17,3h.05a3.84,3.84,0,0,0,2.81-1.18l.54.69a4.51,4.51,0,0,1-3.41,1.37,4.29,4.29,0,0,1-.06-8.58,4,4,0,0,1,3.91,4Q1262.89,625.7,1262.88,625.81Zm-7-.45h5.95a2.93,2.93,0,0,0-2.89-2.9A3,3,0,0,0,1255.91,625.35Z" transform="translate(-1 -1)"/><path class="cls-13" d="M1271.87,622.62V630h-1v-7.39h-2v-.92h2v-1.43c0-1.83.77-3.11,2.75-3.11a4.23,4.23,0,0,1,2.24.62l-.36.84a3.62,3.62,0,0,0-1.82-.51c-1.29,0-1.8.79-1.8,2.16v1.43h3.58v.92Z" transform="translate(-1 -1)"/><path class="cls-13" d="M1285.23,625.86a4.32,4.32,0,1,1-4.35-4.29h0a4.22,4.22,0,0,1,4.33,4.1Q1285.23,625.76,1285.23,625.86Zm-7.62,0a3.29,3.29,0,1,0,3.29-3.35,3.23,3.23,0,0,0-3.29,3.17Q1277.61,625.77,1277.61,625.86Z" transform="translate(-1 -1)"/><path class="cls-13" d="M1292.89,621.87l-.26,1a3.29,3.29,0,0,0-1.48-.34c-1.39,0-2.38,1.13-2.38,2.8V630h-1V621.7h1v1.41a2.86,2.86,0,0,1,2.56-1.56A3.44,3.44,0,0,1,1292.89,621.87Z" transform="translate(-1 -1)"/><path class="cls-13" d="M1308.47,630l-1.5-3.61h-6.43L1299,630h-1.12l5.19-12.37h1.33l5.2,12.37Zm-1.93-4.64-2.78-6.68-2.78,6.68Z" transform="translate(-1 -1)"/><path class="cls-13" d="M1320,625.86a4.14,4.14,0,0,1-4,4.28h-.18a3.73,3.73,0,0,1-3.28-1.71v5.12h-1V621.7h1v1.58a3.74,3.74,0,0,1,3.28-1.71,4.14,4.14,0,0,1,4.16,4.13Q1320,625.77,1320,625.86Zm-7.51,0a3.24,3.24,0,1,0,3.23-3.35,3.2,3.2,0,0,0-3.24,3.15Q1312.52,625.76,1312.52,625.86Z" transform="translate(-1 -1)"/><path class="cls-13" d="M1331,625.86a4.14,4.14,0,0,1-4,4.28h-.18a3.73,3.73,0,0,1-3.28-1.71v5.12h-1V621.7h1v1.58a3.74,3.74,0,0,1,3.28-1.71,4.14,4.14,0,0,1,4.16,4.13Q1331,625.77,1331,625.86Zm-7.51,0a3.24,3.24,0,1,0,3.23-3.35,3.2,3.2,0,0,0-3.24,3.15Q1323.51,625.76,1323.52,625.86Z" transform="translate(-1 -1)"/><path class="cls-13" d="M1333.58,630V617.29h1V630Z" transform="translate(-1 -1)"/><path class="cls-13" d="M1339,618.71a.7.7,0,0,1-.68.72h0a.69.69,0,0,1-.72-.67s0,0,0,0a.71.71,0,0,1,.68-.73h0a.71.71,0,0,1,.72.7S1339,618.7,1339,618.71Zm-1.23,11.3V621.7h1V630Z" transform="translate(-1 -1)"/><path class="cls-13" d="M1348.66,622.85l-.65.68a3.31,3.31,0,1,0-2.44,5.66,3.46,3.46,0,0,0,2.47-1l.63.69a4,4,0,0,1-3.07,1.29,4.29,4.29,0,0,1,0-8.58A4,4,0,0,1,1348.66,622.85Z" transform="translate(-1 -1)"/><path class="cls-13" d="M1357.69,630v-1.6a3.73,3.73,0,0,1-3.3,1.73,4.29,4.29,0,0,1,0-8.58,3.77,3.77,0,0,1,3.3,1.73v-1.6h1V630Zm-6.42-4.15a3.21,3.21,0,1,0,0-.18Q1351.26,625.77,1351.27,625.86Z" transform="translate(-1 -1)"/><path class="cls-13" d="M1363.68,622.62v4.53c0,1.4.74,2,1.85,2a3,3,0,0,0,1.86-.64l.48.75a3.73,3.73,0,0,1-2.41.83c-1.73,0-2.77-1-2.77-3v-4.55h-1.91v-.92h1.91V619h1v2.71h3.83v.92Z" transform="translate(-1 -1)"/><path class="cls-13" d="M1371.1,618.71a.7.7,0,0,1-.68.72h0a.69.69,0,0,1-.72-.67s0,0,0,0a.71.71,0,0,1,.68-.73h0a.71.71,0,0,1,.72.7S1371.1,618.7,1371.1,618.71Zm-1.23,11.3V621.7h1V630Z" transform="translate(-1 -1)"/><path class="cls-13" d="M1382.06,625.86a4.32,4.32,0,1,1-4.35-4.29h0a4.22,4.22,0,0,1,4.33,4.1Q1382.07,625.76,1382.06,625.86Zm-7.62,0a3.29,3.29,0,1,0,3.29-3.35,3.23,3.23,0,0,0-3.29,3.17Q1374.45,625.77,1374.45,625.86Z" transform="translate(-1 -1)"/><path class="cls-13" d="M1392.08,624.91V630h-1v-4.79a2.46,2.46,0,0,0-2.67-2.7,2.69,2.69,0,0,0-2.78,2.59q0,.08,0,.16V630h-1V621.7h1v1.46a3.36,3.36,0,0,1,3-1.59,3.22,3.22,0,0,1,3.5,3.35Z" transform="translate(-1 -1)"/><path class="cls-13" d="M1411.31,623.83c0,3.79-2.57,6.18-6.69,6.18h-4.51V617.64h4.51C1408.74,617.64,1411.31,620,1411.31,623.83ZM1401.19,629h3.44c3.6,0,5.56-2,5.56-5.16s-2-5.16-5.56-5.16h-3.44Z" transform="translate(-1 -1)"/><path class="cls-13" d="M1420.85,630v-1.6a3.73,3.73,0,0,1-3.3,1.73,4.29,4.29,0,0,1,0-8.58,3.77,3.77,0,0,1,3.3,1.73v-1.6h1V630Zm-6.42-4.15a3.21,3.21,0,1,0,0-.18Q1414.42,625.77,1414.43,625.86Z" transform="translate(-1 -1)"/><path class="cls-13" d="M1426.84,622.62v4.53c0,1.4.74,2,1.85,2a3,3,0,0,0,1.86-.64l.48.75a3.73,3.73,0,0,1-2.41.83c-1.73,0-2.77-1-2.77-3v-4.55h-1.91v-.92h1.91V619h1v2.71h3.83v.92Z" transform="translate(-1 -1)"/><path class="cls-13" d="M1439.78,630v-1.6a3.73,3.73,0,0,1-3.3,1.73,4.29,4.29,0,0,1,0-8.58,3.77,3.77,0,0,1,3.3,1.73v-1.6h1V630Zm-6.42-4.15a3.21,3.21,0,1,0,0-.18Q1433.35,625.77,1433.35,625.86Z" transform="translate(-1 -1)"/><rect class="cls-18" x="829.18" y="265.78" width="248.63" height="149.97"/><line class="cls-19" x1="954.99" y1="266.76" x2="954.99" y2="414.77"/><path class="cls-12" d="M1002,325.8v-11.7l-5,10.16h-1.2l-5-10.1V325.8h-1.13v-13h1.71l5,10.12,5-10.12h1.71v13Z" transform="translate(-1 -1)"/><path class="cls-12" d="M1007,325.8v-13h1.13v13Z" transform="translate(-1 -1)"/><path class="cls-12" d="M1021.68,325.8l-8.51-11v11H1012v-13h1l8.52,11v-11h1.13v13Z" transform="translate(-1 -1)"/><path class="cls-12" d="M1026.6,325.8v-13h1.13v13Z" transform="translate(-1 -1)"/><path class="cls-12" d="M1044.16,319.31a6.65,6.65,0,1,1-6.65-6.64A6.44,6.44,0,0,1,1044.16,319.31Zm-12.13,0a5.47,5.47,0,1,0,5.47-5.55A5.33,5.33,0,0,0,1032,319.31Z" transform="translate(-1 -1)"/><path class="cls-12" d="M990.59,336c-2.08,0-3.62,1-3.62,2.59,0,1.29,1,2.08,3.17,2.33l1.42.16c2.31.27,4,1.16,4,3.33,0,2.52-2.31,3.79-5.1,3.79a8.46,8.46,0,0,1-5-1.62l.62-.9a7.55,7.55,0,0,0,4.4,1.45c2.2,0,3.93-.86,3.93-2.62,0-1.41-1.13-2.09-3.29-2.34l-1.48-.17c-2.37-.27-3.81-1.33-3.81-3.33,0-2.4,2.13-3.74,4.81-3.74a7.85,7.85,0,0,1,4.64,1.43l-.58.92A6.92,6.92,0,0,0,990.59,336Z" transform="translate(-1 -1)"/><path class="cls-12" d="M1006.23,343.67c0,.16,0,.3,0,.44h-7.32a3.26,3.26,0,0,0,3.38,3.2,4,4,0,0,0,3-1.24l.57.72a4.74,4.74,0,0,1-3.58,1.44,4.51,4.51,0,0,1-.06-9A4.17,4.17,0,0,1,1006.23,343.67Zm-7.32-.47h6.24a3.08,3.08,0,0,0-3-3A3.2,3.2,0,0,0,998.91,343.2Z" transform="translate(-1 -1)"/><path class="cls-12" d="M1014.28,339.54l-.27,1a3.46,3.46,0,0,0-1.55-.35c-1.46,0-2.5,1.19-2.5,2.94v4.93h-1v-8.73h1v1.48a3,3,0,0,1,2.69-1.63A3.61,3.61,0,0,1,1014.28,339.54Z" transform="translate(-1 -1)"/><path class="cls-12" d="M1019.29,348.1l-3.86-8.75h1.15l3.32,7.68,3.34-7.68h1.11l-3.85,8.75Z" transform="translate(-1 -1)"/><path class="cls-12" d="M1027.65,336.22a.73.73,0,0,1-.76.75.73.73,0,0,1-.75-.75.76.76,0,1,1,1.51,0Zm-1.29,11.87v-8.73h1.06v8.73Z" transform="translate(-1 -1)"/><path class="cls-12" d="M1037.79,340.57l-.69.71a3.5,3.5,0,0,0-2.56-1.08,3.51,3.51,0,0,0,0,7,3.64,3.64,0,0,0,2.59-1.08l.66.72a4.21,4.21,0,0,1-3.22,1.36,4.5,4.5,0,0,1,0-9A4.2,4.2,0,0,1,1037.79,340.57Z" transform="translate(-1 -1)"/><path class="cls-12" d="M1047.87,343.67c0,.16,0,.3,0,.44h-7.32a3.26,3.26,0,0,0,3.38,3.2,4,4,0,0,0,3-1.24l.57.72a4.74,4.74,0,0,1-3.58,1.44,4.51,4.51,0,0,1-.07-9C1046.1,339.22,1047.84,341.06,1047.87,343.67Zm-7.32-.47h6.24a3.08,3.08,0,0,0-3-3A3.2,3.2,0,0,0,1040.55,343.2Z" transform="translate(-1 -1)"/><path class="cls-12" d="M991.17,370.37l-1.58-3.79h-6.75l-1.58,3.79h-1.18l5.46-13h1.39l5.46,13Zm-2-4.87-2.92-7-2.92,7Z" transform="translate(-1 -1)"/><path class="cls-12" d="M1001.58,363.31V357h1v13.36h-1v-1.68a3.91,3.91,0,0,1-3.46,1.82,4.51,4.51,0,0,1,0-9A4,4,0,0,1,1001.58,363.31ZM994.83,366a3.4,3.4,0,1,0,3.41-3.52A3.37,3.37,0,0,0,994.83,366Z" transform="translate(-1 -1)"/><path class="cls-12" d="M1013.13,370.37v-1.68a3.91,3.91,0,0,1-3.46,1.82,4.51,4.51,0,0,1,0-9,4,4,0,0,1,3.46,1.82v-1.68h1v8.73Zm-6.74-4.36a3.4,3.4,0,1,0,3.4-3.52A3.37,3.37,0,0,0,1006.38,366Z" transform="translate(-1 -1)"/><path class="cls-12" d="M1026.42,366a4.34,4.34,0,0,1-4.37,4.5,3.92,3.92,0,0,1-3.44-1.8v5.37h-1.06V361.63h1.06v1.66a3.93,3.93,0,0,1,3.44-1.8A4.35,4.35,0,0,1,1026.42,366Zm-7.89,0a3.4,3.4,0,1,0,3.4-3.52A3.36,3.36,0,0,0,1018.54,366Z" transform="translate(-1 -1)"/><path class="cls-12" d="M1030.9,362.6v4.76c0,1.47.78,2.15,1.94,2.15a3.15,3.15,0,0,0,1.95-.67l.5.79a3.92,3.92,0,0,1-2.53.87c-1.82,0-2.91-1-2.91-3.13V362.6h-2v-1h2v-2.85h1.06v2.85h4v1Z" transform="translate(-1 -1)"/><path class="cls-12" d="M1045.08,365.95c0,.16,0,.3,0,.44h-7.32a3.26,3.26,0,0,0,3.38,3.2,4,4,0,0,0,3-1.24l.57.72a4.74,4.74,0,0,1-3.58,1.44,4.51,4.51,0,0,1-.06-9A4.17,4.17,0,0,1,1045.08,365.95Zm-7.32-.47H1044a3.08,3.08,0,0,0-3-3A3.2,3.2,0,0,0,1037.76,365.48Z" transform="translate(-1 -1)"/><path class="cls-12" d="M1053.13,361.82l-.27,1a3.46,3.46,0,0,0-1.55-.35c-1.46,0-2.5,1.19-2.5,2.94v4.93h-1v-8.73h1v1.48a3,3,0,0,1,2.69-1.63A3.63,3.63,0,0,1,1053.13,361.82Z" transform="translate(-1 -1)"/><line class="cls-7" x1="1078.65" y1="340.95" x2="1253.64" y2="340.95"/><polygon class="cls-14" points="1252.32 347.08 1260.15 340.95 1252.32 334.81 1252.32 347.08"/><path class="cls-13" d="M1115.36,326.53l-.87.58a4.68,4.68,0,0,0-4-2,5.13,5.13,0,0,0,0,10.26,4.64,4.64,0,0,0,4-2l.86.63a5.7,5.7,0,0,1-4.83,2.43,6.14,6.14,0,1,1,0-12.28A5.67,5.67,0,0,1,1115.36,326.53Z" transform="translate(-1 -1)"/><path class="cls-13" d="M1122.9,328.31l-.25,1a3.2,3.2,0,0,0-1.43-.33,2.42,2.42,0,0,0-2.31,2.72v4.55h-1v-8.07h1v1.37a2.77,2.77,0,0,1,2.49-1.51A3.35,3.35,0,0,1,1122.9,328.31Z" transform="translate(-1 -1)"/><path class="cls-13" d="M1131.72,332.12c0,.15,0,.27,0,.4h-6.77a3,3,0,0,0,3.12,3,3.73,3.73,0,0,0,2.73-1.15l.52.67a4.38,4.38,0,0,1-3.31,1.33,4.17,4.17,0,0,1-.06-8.33A3.85,3.85,0,0,1,1131.72,332.12Zm-6.77-.44h5.77a2.84,2.84,0,0,0-2.8-2.81A3,3,0,0,0,1125,331.69Z" transform="translate(-1 -1)"/><path class="cls-13" d="M1140.79,336.2v-1.55a3.62,3.62,0,0,1-3.2,1.68,4.17,4.17,0,0,1,0-8.33,3.65,3.65,0,0,1,3.2,1.68v-1.55h1v8.07Zm-6.23-4a3.14,3.14,0,1,0,3.15-3.25A3.11,3.11,0,0,0,1134.56,332.17Z" transform="translate(-1 -1)"/><path class="cls-13" d="M1146.62,329v4.4c0,1.36.72,2,1.79,2a2.91,2.91,0,0,0,1.8-.62l.46.73a3.62,3.62,0,0,1-2.34.81c-1.68,0-2.69-.93-2.69-2.89V329h-1.85v-.89h1.85V325.5h1v2.63h3.72V329Z" transform="translate(-1 -1)"/><path class="cls-13" d="M1159.73,332.12c0,.15,0,.27,0,.4h-6.77a3,3,0,0,0,3.12,3,3.73,3.73,0,0,0,2.73-1.15l.52.67a4.38,4.38,0,0,1-3.31,1.33A4.17,4.17,0,0,1,1156,328,3.85,3.85,0,0,1,1159.73,332.12Zm-6.77-.44h5.77a2.84,2.84,0,0,0-2.8-2.81A3,3,0,0,0,1153,331.69Z" transform="translate(-1 -1)"/><path class="cls-13" d="M1167,336.2v-12h1v12Z" transform="translate(-1 -1)"/><path class="cls-13" d="M1178.65,331.26v4.95h-1v-4.65a2.39,2.39,0,0,0-2.59-2.62,2.61,2.61,0,0,0-2.7,2.68v4.6h-1v-8.07h1v1.42a3.26,3.26,0,0,1,2.88-1.54A3.12,3.12,0,0,1,1178.65,331.26Z" transform="translate(-1 -1)"/><path class="cls-13" d="M1184.33,328.86c-1.26,0-2.14.54-2.14,1.46,0,.75.59,1.16,1.83,1.3l1,.12c1.69.2,2.65.89,2.65,2.17,0,1.54-1.4,2.42-3.47,2.42a5.44,5.44,0,0,1-3.32-1l.45-.73a4.4,4.4,0,0,0,2.87.91c1.46,0,2.46-.51,2.46-1.51,0-.75-.62-1.2-1.86-1.34l-1-.11c-1.83-.21-2.62-1-2.62-2.15,0-1.48,1.28-2.37,3.14-2.37a5.6,5.6,0,0,1,3.16.91l-.42.75A5.1,5.1,0,0,0,1184.33,328.86Z" transform="translate(-1 -1)"/><path class="cls-13" d="M1191.79,329v4.4c0,1.36.72,2,1.79,2a2.91,2.91,0,0,0,1.8-.62l.46.73a3.62,3.62,0,0,1-2.34.81c-1.68,0-2.69-.93-2.69-2.89V329H1189v-.89h1.85V325.5h1v2.63h3.72V329Z" transform="translate(-1 -1)"/><path class="cls-13" d="M1204.35,336.2v-1.55a3.62,3.62,0,0,1-3.2,1.68,4.17,4.17,0,0,1,0-8.33,3.65,3.65,0,0,1,3.2,1.68v-1.55h1v8.07Zm-6.23-4a3.14,3.14,0,1,0,3.15-3.25A3.11,3.11,0,0,0,1198.11,332.17Z" transform="translate(-1 -1)"/><path class="cls-13" d="M1215.68,331.26v4.95h-1v-4.65a2.39,2.39,0,0,0-2.59-2.62,2.61,2.61,0,0,0-2.7,2.68v4.6h-1v-8.07h1v1.42a3.26,3.26,0,0,1,2.88-1.54A3.12,3.12,0,0,1,1215.68,331.26Z" transform="translate(-1 -1)"/><path class="cls-13" d="M1225.18,329.26l-.63.66a3.24,3.24,0,0,0-2.37-1,3.25,3.25,0,0,0,0,6.49,3.36,3.36,0,0,0,2.39-1l.61.67a3.89,3.89,0,0,1-3,1.25,4.16,4.16,0,0,1,0-8.33A3.88,3.88,0,0,1,1225.18,329.26Z" transform="translate(-1 -1)"/><path class="cls-13" d="M1234.5,332.12c0,.15,0,.27,0,.4h-6.77a3,3,0,0,0,3.12,3,3.73,3.73,0,0,0,2.73-1.15l.52.67a4.38,4.38,0,0,1-3.31,1.33,4.17,4.17,0,0,1-.06-8.33A3.85,3.85,0,0,1,1234.5,332.12Zm-6.77-.44h5.77a2.84,2.84,0,0,0-2.8-2.81A3,3,0,0,0,1227.74,331.69Z" transform="translate(-1 -1)"/><rect class="cls-1" x="1286.15" y="291.36" width="144.34" height="149.97"/><polyline class="cls-20" points="1286.15 294.67 1286.15 291.36 1289.45 291.36"/><line class="cls-21" x1="1291.93" y1="291.36" x2="1425.95" y2="291.36"/><polyline class="cls-22" points="1427.19 291.36 1430.49 291.36 1430.49 294.67"/><line class="cls-23" x1="1430.49" y1="297.24" x2="1430.49" y2="436.74"/><polyline class="cls-24" points="1430.49 438.03 1430.49 441.34 1427.19 441.34"/><line class="cls-25" x1="1424.71" y1="441.34" x2="1290.69" y2="441.34"/><polyline class="cls-26" points="1289.45 441.34 1286.15 441.34 1286.15 438.03"/><line class="cls-27" x1="1286.15" y1="435.46" x2="1286.15" y2="295.96"/><rect class="cls-1" x="1278.65" y="283.54" width="144.34" height="149.97"/><polyline class="cls-28" points="1278.65 286.84 1278.65 283.54 1281.95 283.54"/><line class="cls-29" x1="1284.43" y1="283.54" x2="1418.45" y2="283.54"/><polyline class="cls-30" points="1419.69 283.54 1422.99 283.54 1422.99 286.84"/><line class="cls-31" x1="1422.99" y1="289.42" x2="1422.99" y2="428.92"/><polyline class="cls-32" points="1422.99 430.21 1422.99 433.51 1419.69 433.51"/><line class="cls-33" x1="1417.21" y1="433.51" x2="1283.19" y2="433.51"/><polyline class="cls-34" points="1281.95 433.51 1278.65 433.51 1278.65 430.21"/><line class="cls-35" x1="1278.65" y1="427.63" x2="1278.65" y2="288.13"/><rect class="cls-1" x="1269.53" y="275.45" width="144.34" height="149.97"/><polyline class="cls-36" points="1269.53 278.75 1269.53 275.45 1272.83 275.45"/><line class="cls-37" x1="1275.31" y1="275.45" x2="1409.33" y2="275.45"/><polyline class="cls-36" points="1410.57 275.45 1413.87 275.45 1413.87 278.75"/><line class="cls-38" x1="1413.87" y1="281.33" x2="1413.87" y2="420.83"/><polyline class="cls-39" points="1413.87 422.12 1413.87 425.42 1410.57 425.42"/><line class="cls-40" x1="1408.09" y1="425.42" x2="1274.07" y2="425.42"/><polyline class="cls-39" points="1272.83 425.42 1269.53 425.42 1269.53 422.12"/><line class="cls-41" x1="1269.53" y1="419.54" x2="1269.53" y2="280.04"/><rect class="cls-42" x="1261.04" y="266.19" width="144.34" height="149.97"/><path class="cls-12" d="M1320.69,337.78v-11.7l-5,10.16h-1.2l-5-10.1v11.64h-1.13v-13h1.71l5,10.12,5-10.12h1.71v13Z" transform="translate(-1 -1)"/><path class="cls-12" d="M1325.72,337.78v-13h1.13v13Z" transform="translate(-1 -1)"/><path class="cls-12" d="M1340.39,337.78l-8.51-11v11h-1.13v-13h1l8.52,11v-11h1.13v13Z" transform="translate(-1 -1)"/><path class="cls-12" d="M1345.31,337.78v-13h1.13v13Z" transform="translate(-1 -1)"/><path class="cls-12" d="M1362.87,331.28a6.65,6.65,0,1,1-6.65-6.64A6.44,6.44,0,0,1,1362.87,331.28Zm-12.12,0a5.47,5.47,0,1,0,5.47-5.55A5.33,5.33,0,0,0,1350.74,331.28Z" transform="translate(-1 -1)"/><path class="cls-12" d="M1301.64,350.44a2.87,2.87,0,0,1-2.24,2.93,3.06,3.06,0,0,1,2.5,3.15c0,2.49-1.83,3.54-4.65,3.54H1292v-13h5C1299.75,347.07,1301.64,348,1301.64,350.44Zm-8.48,2.48H1297c2,0,3.44-.55,3.44-2.39s-1.47-2.38-3.45-2.38h-3.85Zm0,6.08h4.05c2.12,0,3.51-.63,3.51-2.51s-1.39-2.5-3.51-2.5h-4.05Z" transform="translate(-1 -1)"/><path class="cls-12" d="M1317.55,353.56a6.65,6.65,0,1,1-6.65-6.64A6.44,6.44,0,0,1,1317.55,353.56Zm-12.13,0a5.47,5.47,0,1,0,5.47-5.55A5.33,5.33,0,0,0,1305.42,353.56Z" transform="translate(-1 -1)"/><path class="cls-12" d="M1325,348c-2.08,0-3.62,1-3.62,2.59,0,1.29,1,2.08,3.17,2.33l1.42.16c2.31.27,4,1.16,4,3.33,0,2.52-2.31,3.79-5.1,3.79a8.47,8.47,0,0,1-5-1.62l.62-.9a7.54,7.54,0,0,0,4.4,1.45c2.2,0,3.93-.86,3.93-2.62,0-1.41-1.13-2.09-3.29-2.34l-1.47-.17c-2.37-.27-3.81-1.33-3.81-3.33,0-2.4,2.13-3.74,4.8-3.74a7.86,7.86,0,0,1,4.64,1.43l-.58.92A6.92,6.92,0,0,0,1325,348Z" transform="translate(-1 -1)"/><path class="cls-12" d="M1342.63,353v-5.91h1.13v13h-1.13v-6h-8.37v6h-1.13v-13h1.13V353Z" transform="translate(-1 -1)"/><path class="cls-12" d="M1356.06,360.06l-5.35-13h1.21l4.86,11.87,4.87-11.87h1.17l-5.35,13Z" transform="translate(-1 -1)"/><path class="cls-12" d="M1377.37,360.06v-11.7l-5,10.16h-1.2l-5-10.1v11.64h-1.13v-13h1.71l5,10.12,5-10.12h1.71v13Z" transform="translate(-1 -1)"/><path class="cls-12" d="M852.11,329.32a6.65,6.65,0,1,1-6.65-6.64A6.44,6.44,0,0,1,852.11,329.32Zm-12.12,0a5.47,5.47,0,1,0,5.47-5.55A5.33,5.33,0,0,0,840,329.32Z" transform="translate(-1 -1)"/><path class="cls-12" d="M862.81,330.46v5.35h-1.06v-5a2.59,2.59,0,0,0-2.8-2.84,2.82,2.82,0,0,0-2.92,2.89v5H855v-8.73h1v1.53a3.53,3.53,0,0,1,3.12-1.67A3.38,3.38,0,0,1,862.81,330.46Z" transform="translate(-1 -1)"/><path class="cls-12" d="M865.77,331.41v-1h5v1Z" transform="translate(-1 -1)"/><path class="cls-12" d="M885.86,329.32c0,4-2.7,6.49-7,6.49h-4.74v-13h4.74C883.16,322.83,885.86,325.34,885.86,329.32Zm-10.63,5.42h3.61c3.78,0,5.83-2.12,5.83-5.42s-2.06-5.42-5.83-5.42h-3.61Z" transform="translate(-1 -1)"/><path class="cls-12" d="M896.48,331.4c0,.16,0,.3,0,.44h-7.32a3.26,3.26,0,0,0,3.38,3.2,4,4,0,0,0,2.95-1.24l.57.72a4.74,4.74,0,0,1-3.58,1.44,4.51,4.51,0,0,1-.07-9A4.17,4.17,0,0,1,896.48,331.4Zm-7.32-.47h6.24a3.08,3.08,0,0,0-3-3A3.2,3.2,0,0,0,889.16,330.92Z" transform="translate(-1 -1)"/><path class="cls-12" d="M913.8,330.46v5.35h-1.06v-5a2.59,2.59,0,0,0-2.81-2.84,2.83,2.83,0,0,0-2.92,2.89v5h-1.06v-5a2.59,2.59,0,0,0-2.8-2.84,2.82,2.82,0,0,0-2.92,2.89v5h-1.06v-8.73h1v1.53a3.53,3.53,0,0,1,3.12-1.67,3.43,3.43,0,0,1,3.4,2,3.55,3.55,0,0,1,3.39-2A3.39,3.39,0,0,1,913.8,330.46Z" transform="translate(-1 -1)"/><path class="cls-12" d="M924.21,335.81v-1.68a3.91,3.91,0,0,1-3.46,1.82,4.51,4.51,0,0,1,0-9,4,4,0,0,1,3.46,1.82v-1.68h1v8.73Zm-6.74-4.36a3.4,3.4,0,1,0,3.4-3.52A3.37,3.37,0,0,0,917.46,331.45Z" transform="translate(-1 -1)"/><path class="cls-12" d="M936.47,330.46v5.35h-1.06v-5a2.59,2.59,0,0,0-2.8-2.84,2.83,2.83,0,0,0-2.92,2.89v5h-1.06v-8.73h1v1.53a3.52,3.52,0,0,1,3.12-1.67A3.38,3.38,0,0,1,936.47,330.46Z" transform="translate(-1 -1)"/><path class="cls-12" d="M946.88,328.76v-6.31h1v13.36h-1v-1.68a3.91,3.91,0,0,1-3.46,1.82,4.51,4.51,0,0,1,0-9A4,4,0,0,1,946.88,328.76Zm-6.75,2.69a3.4,3.4,0,1,0,3.41-3.52A3.37,3.37,0,0,0,940.13,331.45Z" transform="translate(-1 -1)"/><path class="cls-12" d="M862,353.69v-1h5v1Z" transform="translate(-1 -1)"/><path class="cls-12" d="M879.91,348.47a2.87,2.87,0,0,1-2.24,2.93,3.06,3.06,0,0,1,2.5,3.14c0,2.49-1.83,3.54-4.65,3.54H870.3v-13h5C878,345.11,879.91,346.06,879.91,348.47ZM871.43,351h3.86c2,0,3.44-.55,3.44-2.39s-1.47-2.38-3.45-2.38h-3.85Zm0,6.08h4.05c2.12,0,3.51-.63,3.51-2.51s-1.39-2.5-3.51-2.5h-4.05Z" transform="translate(-1 -1)"/><path class="cls-12" d="M888.4,349.55l-.27,1a3.44,3.44,0,0,0-1.55-.35c-1.46,0-2.5,1.19-2.5,2.94v4.93h-1v-8.73h1v1.48a3,3,0,0,1,2.69-1.63A3.61,3.61,0,0,1,888.4,349.55Z" transform="translate(-1 -1)"/><path class="cls-12" d="M898.6,353.73a4.54,4.54,0,1,1-4.55-4.51A4.43,4.43,0,0,1,898.6,353.73Zm-8,0a3.46,3.46,0,1,0,3.45-3.52A3.39,3.39,0,0,0,890.6,353.73Z" transform="translate(-1 -1)"/><path class="cls-12" d="M903.77,353l3.67-3.68h1.34l-4.16,4.12,4.23,4.61H907.5L903.77,354h-1.42v4.09h-1.06V344.73h1.06V353Z" transform="translate(-1 -1)"/><path class="cls-12" d="M918.31,353.68c0,.16,0,.3,0,.44H911a3.26,3.26,0,0,0,3.38,3.2,4,4,0,0,0,2.95-1.24l.57.72a4.74,4.74,0,0,1-3.58,1.44,4.51,4.51,0,0,1-.07-9A4.17,4.17,0,0,1,918.31,353.68ZM911,353.2h6.24a3.08,3.08,0,0,0-3-3A3.2,3.2,0,0,0,911,353.2Z" transform="translate(-1 -1)"/><path class="cls-12" d="M926.36,349.55l-.27,1a3.44,3.44,0,0,0-1.55-.35c-1.46,0-2.5,1.19-2.5,2.94v4.93h-1v-8.73h1v1.48a3,3,0,0,1,2.69-1.63A3.61,3.61,0,0,1,926.36,349.55Z" transform="translate(-1 -1)"/></svg>